<svg width="97" height="26" viewBox="0 0 97 26" fill="none" xmlns="http://www.w3.org/2000/svg">
<g id="Slack">
<path id="Path" d="M31.6797 19.8188L32.9397 16.9838C34.3047 18.0338 35.9847 18.4538 37.6647 18.4538C38.9247 18.4538 39.6597 18.0338 39.6597 17.1938C39.6597 15.1988 32.0997 16.7738 31.9947 11.6288C31.9947 9.00379 34.3047 7.00879 37.5597 7.00879C39.4497 7.00879 41.4447 7.42879 42.8097 8.58379L41.6547 11.4188C40.3947 10.6838 38.7147 10.0538 37.2447 10.0538C36.1947 10.0538 35.5647 10.4738 35.5647 11.2088C35.5647 13.2038 43.2297 12.1538 43.2297 17.0888C43.2297 19.8188 41.0247 21.6038 37.7697 21.6038C35.4597 21.6038 33.3597 21.0788 31.6797 19.8188" fill="#C9CBD4"/>
<path id="Path_2" d="M77.6689 16.0387C77.1439 17.0887 75.9889 17.8237 74.6239 17.8237C72.7339 17.8237 71.1589 16.2487 71.1589 14.3587C71.1589 12.4688 72.7339 10.8937 74.6239 10.8937C75.9889 10.8937 77.1439 11.5238 77.6689 12.6788L80.9239 10.8937C79.6639 8.68875 77.3539 7.21875 74.6239 7.21875C70.6339 7.21875 67.3789 10.4737 67.3789 14.4637C67.3789 18.4537 70.6339 21.7087 74.6239 21.7087C77.3539 21.7087 79.6639 20.2387 80.9239 18.0337L77.6689 16.0387Z" fill="#C9CBD4"/>
<path id="Path_3" d="M45.1191 1.12891H49.3191V21.2889H45.1191V1.12891Z" fill="#C9CBD4"/>
<path id="Path_4" d="M82.6035 1.12891V21.2889H86.8035V15.1989L91.7385 21.2889H96.9885L90.6885 14.1489L96.5685 7.42891H91.5285L86.8035 12.9939V1.12891L82.6035 1.12891Z" fill="#C9CBD4"/>
<path id="Shape" fill-rule="evenodd" clip-rule="evenodd" d="M61.4991 9.10875V7.42875H65.6991V21.2887H61.4991V19.7137C60.7641 20.8687 59.0841 21.6038 57.2991 21.6038C53.7291 21.6038 50.7891 18.2437 50.7891 14.3587C50.7891 10.4737 53.7291 7.21875 57.2991 7.21875C59.1891 7.21875 60.8691 7.95375 61.4991 9.10875ZM58.2443 17.7188C59.7143 17.7188 60.9743 17.0888 61.4993 16.0388V12.5738C60.8693 11.5238 59.6093 10.7888 58.2443 10.7888C56.3543 10.7888 54.7793 12.3638 54.7793 14.2538C54.7793 16.1438 56.3543 17.7188 58.2443 17.7188Z" fill="#C9CBD4"/>
<path id="Path_5" d="M6.05859 16.0381C6.05859 17.5081 4.90359 18.6631 3.43359 18.6631C1.96359 18.6631 0.808594 17.5081 0.808594 16.0381C0.808594 14.5681 1.96359 13.4131 3.43359 13.4131H6.05859V16.0381Z" fill="#C9CBD4"/>
<path id="Path_6" d="M7.42383 16.0381C7.42383 14.5681 8.57883 13.4131 10.0488 13.4131C11.5188 13.4131 12.6738 14.5681 12.6738 16.0381V22.4431C12.6738 23.9131 11.5188 25.0681 10.0488 25.0681C8.57883 25.0681 7.42383 23.9131 7.42383 22.4431L7.42383 16.0381Z" fill="#C9CBD4"/>
<path id="Path_7" d="M9.83789 5.85352C8.36789 5.85352 7.21289 4.69852 7.21289 3.22852C7.21289 1.75852 8.36789 0.603516 9.83789 0.603516C11.3079 0.603516 12.4629 1.75852 12.4629 3.22852V5.85352H9.83789Z" fill="#C9CBD4"/>
<path id="Path_8" d="M9.83906 7.21875C11.3091 7.21875 12.4641 8.37375 12.4641 9.84375C12.4641 11.3138 11.3091 12.4688 9.83906 12.4688H3.53906C2.06906 12.4688 0.914062 11.3138 0.914062 9.84375C0.914062 8.37375 2.06906 7.21875 3.53906 7.21875L9.83906 7.21875Z" fill="#C9CBD4"/>
<path id="Path_9" d="M20.1289 9.63379C20.1289 8.16379 21.2839 7.00879 22.7539 7.00879C24.2239 7.00879 25.3789 8.16379 25.3789 9.63379C25.3789 11.1038 24.2239 12.2588 22.7539 12.2588H20.1289V9.63379Z" fill="#C9CBD4"/>
<path id="Path_10" d="M18.8691 9.63352C18.8691 11.1035 17.7141 12.2585 16.2441 12.2585C14.7741 12.2585 13.6191 11.1035 13.6191 9.63352V3.22852C13.6191 1.75852 14.7741 0.603516 16.2441 0.603516C17.7141 0.603516 18.8691 1.75852 18.8691 3.22852V9.63352Z" fill="#C9CBD4"/>
<path id="Path_11" d="M16.2441 19.8184C17.7141 19.8184 18.8691 20.9734 18.8691 22.4434C18.8691 23.9134 17.7141 25.0684 16.2441 25.0684C14.7741 25.0684 13.6191 23.9134 13.6191 22.4434V19.8184H16.2441Z" fill="#C9CBD4"/>
<path id="Path_12" d="M16.2441 18.6631C14.7741 18.6631 13.6191 17.5081 13.6191 16.0381C13.6191 14.5681 14.7741 13.4131 16.2441 13.4131H22.6491C24.1191 13.4131 25.2741 14.5681 25.2741 16.0381C25.2741 17.5081 24.1191 18.6631 22.6491 18.6631H16.2441Z" fill="#C9CBD4"/>
</g>
</svg>
