<svg width="117" height="28" viewBox="0 0 117 28" fill="none" xmlns="http://www.w3.org/2000/svg">
<path fill-rule="evenodd" clip-rule="evenodd" d="M45.875 21.5248H49.5628V9.94141H45.875V21.5248Z" fill="#C9CBD4"/>
<path fill-rule="evenodd" clip-rule="evenodd" d="M50.332 9.94085H53.8839V11.5245H53.9518C54.8115 10.2801 55.92 9.60156 57.5264 9.60156C60.0602 9.60156 61.5533 11.4114 61.5533 13.9905V21.5243H57.8657V14.7372C57.8657 13.5154 57.2549 12.6782 56.0559 12.6782C54.8342 12.6782 54.0197 13.6963 54.0197 15.1217V21.5243H50.332V9.94085Z" fill="#C9CBD4"/>
<path fill-rule="evenodd" clip-rule="evenodd" d="M49.93 6.84199C49.93 5.62025 48.9396 4.62988 47.718 4.62988C46.4963 4.62988 45.5059 5.62025 45.5059 6.84199C45.5059 8.06363 46.4963 9.054 47.718 9.054C48.9396 9.054 49.93 8.06363 49.93 6.84199" fill="#C9CBD4"/>
<path fill-rule="evenodd" clip-rule="evenodd" d="M87.489 9.77346C87.3837 9.76397 87.263 9.75977 87.1218 9.75977C85.7192 9.75977 84.7691 10.3706 83.9546 11.7506H83.8868V9.94082H80.3574V21.524H84.0451V16.3207C84.0451 13.9096 85.3802 12.7924 87.489 12.9873V9.77346Z" fill="#C9CBD4"/>
<path fill-rule="evenodd" clip-rule="evenodd" d="M105.586 14.2168C104.115 13.9453 102.803 13.8323 102.803 13.0179C102.803 12.2937 103.504 11.9545 104.409 11.9545C105.427 11.9545 106.129 12.2712 106.264 13.312H109.658C109.477 11.0269 107.712 9.60156 104.432 9.60156C101.694 9.60156 99.4319 10.8686 99.4319 13.312C99.4319 16.0266 101.581 16.5697 103.595 16.909C105.133 17.1806 106.536 17.2937 106.536 18.3344C106.536 19.0809 105.834 19.4881 104.726 19.4881C103.614 19.4881 102.878 19.0176 102.653 18.0629H99.1387C99.3973 20.4441 101.487 21.8863 104.748 21.8863C107.78 21.8863 110.02 20.5742 110.02 18.0403C110.02 15.0765 107.622 14.5562 105.586 14.2168" fill="#C9CBD4"/>
<path fill-rule="evenodd" clip-rule="evenodd" d="M93.413 19.2165C91.8971 19.2165 91.0375 18.2438 90.8111 16.6827H99.1368C99.1595 14.3299 98.4808 12.3164 97.1007 11.0495C96.1051 10.1445 94.793 9.60156 93.1413 9.60156C89.6121 9.60156 87.1914 12.2485 87.1914 15.71C87.1914 19.2165 89.5443 21.8636 93.3676 21.8636C94.8381 21.8636 96.0146 21.479 96.9875 20.8003C98.0056 20.0989 98.6842 19.1035 98.9331 18.0629H95.336C95.0191 18.7868 94.3858 19.2165 93.413 19.2165M93.2095 12.2259C94.4085 12.2259 95.2681 13.1082 95.404 14.4883H90.834C91.0828 13.1082 91.8068 12.2259 93.2095 12.2259" fill="#C9CBD4"/>
<path fill-rule="evenodd" clip-rule="evenodd" d="M116.514 18.7933C116.344 18.8 116.114 18.81 115.903 18.81C115.111 18.81 114.614 18.5836 114.614 17.6787V12.249H116.514V9.94139H114.614V6.27637H111.017V9.94139H109.885V12.249H111.017V18.4705C111.017 20.9593 112.555 21.6604 114.704 21.6604C115.524 21.6604 116.144 21.599 116.514 21.5268V18.7933Z" fill="#C9CBD4"/>
<path fill-rule="evenodd" clip-rule="evenodd" d="M68.1379 18.7986C67.9908 18.8042 67.821 18.81 67.6623 18.81C66.8706 18.81 66.3728 18.5836 66.3728 17.6787V12.249H68.1379V9.94148H66.3728V6.27637H62.7757V9.94148H61.5762V12.249H62.7757V18.4705C62.7757 20.9593 64.314 21.6605 66.4633 21.6605C67.1905 21.6605 67.7599 21.6121 68.1379 21.5508V18.7986Z" fill="#C9CBD4"/>
<path fill-rule="evenodd" clip-rule="evenodd" d="M67.959 15.7099C67.959 12.2485 70.3796 9.60156 73.909 9.60156C75.5605 9.60156 76.8727 10.1445 77.8681 11.0495C79.2482 12.3164 79.9268 14.3298 79.9041 16.6827H71.5788C71.8049 18.2436 72.6646 19.2165 74.1805 19.2165C75.1533 19.2165 75.7867 18.7867 76.1034 18.0629H79.7006C79.4516 19.1034 78.773 20.0988 77.7549 20.8003C76.7822 21.479 75.6058 21.8635 74.1352 21.8635C70.3118 21.8635 67.959 19.2165 67.959 15.7099V15.7099ZM76.1711 14.4882C76.0355 13.1082 75.1756 12.2257 73.9765 12.2257C72.5739 12.2257 71.85 13.1082 71.6011 14.4882H76.1711Z" fill="#C9CBD4"/>
<path fill-rule="evenodd" clip-rule="evenodd" d="M32.9082 5.34863H39.312C41.2802 5.34863 42.7281 5.89152 43.7236 6.84181C44.7643 7.81447 45.3525 9.19471 45.3525 10.8236C45.3525 13.923 43.2032 16.1175 39.8775 16.1175H36.6416V21.5245H32.9082V5.34863ZM39.4697 12.9502C40.9177 12.9502 41.7322 12.0905 41.7322 10.8008C41.7322 9.51135 40.895 8.71956 39.4697 8.71956H36.6416V12.9502H39.4697Z" fill="#C9CBD4"/>
<mask id="mask0_7360_13415" style="mask-type:luminance" maskUnits="userSpaceOnUse" x="0" y="0" width="28" height="28">
<path fill-rule="evenodd" clip-rule="evenodd" d="M0 0H27.8458V27.8458H0V0Z" fill="white"/>
</mask>
<g mask="url(#mask0_7360_13415)">
<path fill-rule="evenodd" clip-rule="evenodd" d="M13.9229 0C10.2316 0 6.87626 1.43712 4.38458 3.78152C4.28104 3.87894 4.17842 3.97737 4.07799 4.07789C3.97582 4.17997 3.87593 4.28424 3.77696 4.38951C3.49455 4.68999 3.22475 5.00243 2.96956 5.32702C1.10943 7.69407 0 10.6789 0 13.9229C0 14.032 0.00164347 14.1406 0.00419997 14.2492C0.00483909 14.2808 0.00593474 14.3122 0.00693908 14.3438C0.00922167 14.4231 0.0122347 14.5021 0.0159781 14.581C0.0175303 14.6145 0.0189912 14.648 0.0208172 14.6814C0.0256563 14.7706 0.0313171 14.8597 0.0377084 14.9484C0.039078 14.9671 0.0400823 14.9858 0.0415431 15.0046C0.0496692 15.1107 0.0591647 15.2163 0.0696647 15.3216C0.0726777 15.3512 0.0760559 15.3808 0.0792515 15.4104C0.0873776 15.4875 0.0961427 15.5644 0.105638 15.6411C0.110021 15.6771 0.114586 15.7128 0.119243 15.7486C0.129195 15.8247 0.139877 15.9005 0.151108 15.9762C0.15549 16.0062 0.159599 16.0362 0.164255 16.0662C0.179868 16.1677 0.196668 16.2688 0.214472 16.3696C0.219585 16.398 0.225155 16.4263 0.230359 16.4547C0.244055 16.5292 0.258207 16.6035 0.273089 16.6776C0.280759 16.7161 0.288793 16.7546 0.296919 16.793C0.310798 16.8596 0.325315 16.9258 0.340197 16.992C0.348506 17.029 0.356723 17.0662 0.365306 17.1032C0.38658 17.1943 0.408675 17.2851 0.431775 17.3754C0.439901 17.4072 0.448483 17.4388 0.456792 17.4705C0.475874 17.5432 0.495413 17.6157 0.515592 17.6878C0.527278 17.7293 0.539331 17.7708 0.551383 17.8122C0.568182 17.8701 0.585256 17.9277 0.602787 17.9854C0.615843 18.0281 0.628899 18.0708 0.642321 18.1135C0.661769 18.1751 0.681855 18.2364 0.702125 18.2976C0.718925 18.3485 0.735816 18.3992 0.753255 18.4498C0.778363 18.5231 0.80402 18.5962 0.830406 18.6689C0.84675 18.714 0.863641 18.7588 0.880441 18.8035C0.898975 18.8531 0.917784 18.9027 0.936866 18.952C0.955127 18.9991 0.973571 19.0461 0.992288 19.093C1.01137 19.1407 1.031 19.1883 1.05063 19.2357C1.06971 19.2818 1.08843 19.328 1.10797 19.3738C1.14276 19.4556 1.17846 19.537 1.2147 19.618C1.23671 19.6669 1.25944 19.7154 1.2819 19.7639C1.30117 19.8055 1.32034 19.847 1.33997 19.8883C1.3638 19.9385 1.388 19.9886 1.41247 20.0386C1.43137 20.0771 1.45054 20.1155 1.46971 20.1537C1.49537 20.2048 1.52084 20.2558 1.54705 20.3066C1.56321 20.3378 1.57983 20.3687 1.59626 20.3997C1.6483 20.4986 1.70153 20.5968 1.75595 20.6943C1.77366 20.7261 1.79119 20.758 1.80918 20.7897C1.83904 20.8422 1.86944 20.8946 1.90003 20.9467C1.91856 20.9785 1.93737 21.0101 1.95618 21.0417C1.98768 21.0946 2.01936 21.1475 2.05159 21.2C2.06684 21.2248 2.08254 21.2494 2.09788 21.2741C2.16563 21.3829 2.23484 21.4906 2.30551 21.5973C2.31783 21.6161 2.32998 21.6349 2.34249 21.6535C2.37837 21.7073 2.41489 21.7605 2.4515 21.8136C2.46976 21.8401 2.48802 21.8666 2.50647 21.8929C2.54345 21.9457 2.5807 21.9984 2.61841 22.0507C2.63447 22.073 2.65082 22.0952 2.66698 22.1174C2.79572 22.2939 2.92847 22.4673 3.06525 22.6374C3.0825 22.6588 3.09967 22.6805 3.11711 22.7018C3.15901 22.7533 3.20129 22.8045 3.24384 22.8554C3.26146 22.8765 3.27935 22.8975 3.29716 22.9184C3.43959 23.0865 3.58595 23.2512 3.73605 23.4123C3.75276 23.4302 3.76938 23.4482 3.78618 23.466C3.83183 23.5145 3.87785 23.5625 3.92414 23.6103C3.94413 23.6309 3.96422 23.6515 3.98431 23.672C4.03151 23.72 4.07872 23.7679 4.12647 23.8152C4.13715 23.8258 4.14792 23.8361 4.1587 23.8466C4.25868 23.945 4.3603 24.042 4.46319 24.1374C4.47872 24.1517 4.49406 24.1662 4.50967 24.1806C4.5576 24.2247 4.60609 24.268 4.65457 24.3115C4.67831 24.3326 4.70214 24.3538 4.72597 24.3748C4.7739 24.4171 4.82211 24.4591 4.87068 24.5007C4.8926 24.5194 4.91469 24.5378 4.9367 24.5566C5.03896 24.643 5.14231 24.7281 5.24704 24.8118C5.25955 24.8217 5.27187 24.8319 5.28447 24.8419C5.33295 24.8802 5.38207 24.9181 5.4311 24.9559C5.45987 24.978 5.48853 25.0002 5.51739 25.0221C5.56505 25.0583 5.6128 25.0941 5.66092 25.1296C5.69169 25.1523 5.72273 25.1748 5.75368 25.1972C5.80162 25.232 5.84946 25.267 5.89785 25.3011C5.89867 25.3017 5.8994 25.3022 5.90022 25.3027C6.0139 25.383 6.12921 25.4614 6.24544 25.5384C6.28233 25.5627 6.31922 25.5873 6.35638 25.6113C6.40166 25.6407 6.44713 25.6697 6.49269 25.6985C6.53232 25.7237 6.57222 25.7484 6.61221 25.7732C6.65613 25.8003 6.69995 25.8275 6.74423 25.8542C6.79765 25.8864 6.85152 25.9181 6.90548 25.9495C6.96555 25.9847 7.026 26.0194 7.08671 26.0537C7.1372 26.0823 7.1877 26.1106 7.23855 26.1386C7.27927 26.161 7.32036 26.1829 7.36126 26.2048C7.41102 26.2314 7.46088 26.2577 7.51082 26.2838C7.55026 26.3042 7.58952 26.3247 7.62906 26.3448C7.69224 26.3768 7.75569 26.4082 7.81933 26.4393C7.85065 26.4546 7.88169 26.4701 7.9131 26.4852C7.99518 26.5244 8.07781 26.563 8.16081 26.6008C8.19414 26.6159 8.22764 26.6306 8.26106 26.6455C8.32287 26.6731 8.38469 26.7002 8.44686 26.7269C8.48083 26.7414 8.5147 26.7558 8.54876 26.7701C8.62071 26.8003 8.69302 26.8298 8.7656 26.8587C8.78761 26.8675 8.80952 26.8766 8.83162 26.8853C8.83737 26.8875 8.84321 26.8896 8.84896 26.8919C8.72735 25.7903 8.61742 24.0965 8.89736 22.894C9.15036 21.8073 10.53 15.9735 10.53 15.9735C10.53 15.9735 10.1134 15.1393 10.1134 13.9063C10.1134 11.9703 11.2356 10.5249 12.6328 10.5249C13.8206 10.5249 14.3944 11.4168 14.3944 12.4861C14.3944 13.6808 13.6338 15.4668 13.2413 17.1219C12.9133 18.5077 13.9362 19.6379 15.303 19.6379C17.7776 19.6379 19.6799 17.0285 19.6799 13.2621C19.6799 9.92854 17.2844 7.59783 13.8641 7.59783C9.90261 7.59783 7.57729 10.5691 7.57729 13.6399C7.57729 14.8367 8.03828 16.1197 8.61349 16.8173C8.72726 16.9552 8.74387 17.0759 8.71 17.2167C8.60436 17.6563 8.36944 18.6021 8.32333 18.7957C8.26261 19.0505 8.12155 19.1046 7.85768 18.9818C6.1188 18.1723 5.03165 15.63 5.03165 13.588C5.03165 9.1961 8.22271 5.16258 14.231 5.16258C19.0609 5.16258 22.8142 8.60427 22.8142 13.2039C22.8142 18.0022 19.7888 21.8638 15.5895 21.8638C14.1786 21.8638 12.8524 21.1309 12.3984 20.2652C12.3984 20.2652 11.7002 22.9234 11.531 23.575C11.2167 24.7843 10.3681 26.3001 9.80053 27.2248C9.95155 27.2717 10.1039 27.3153 10.2571 27.357C10.2797 27.3631 10.3022 27.3693 10.3247 27.3754C10.6308 27.457 10.9411 27.5283 11.255 27.5893C11.2832 27.5949 11.3114 27.6004 11.3397 27.6056C11.6492 27.6637 11.9624 27.7114 12.2789 27.7487C12.3131 27.7527 12.3474 27.7566 12.3818 27.7604C12.6944 27.7949 13.0101 27.8189 13.3288 27.8324C13.3674 27.8339 13.406 27.8355 13.4447 27.8366C13.6035 27.842 13.7627 27.8458 13.9229 27.8458C15.7121 27.8458 17.4222 27.508 18.9935 26.8931C24.1755 24.8658 27.8458 19.8231 27.8458 13.9229C27.8458 6.23339 21.6123 0 13.9229 0" fill="#C9CBD4"/>
</g>
</svg>
