<svg width="110" height="20" viewBox="0 0 110 20" fill="none" xmlns="http://www.w3.org/2000/svg">
<path d="M59.4023 18.4136H73.5504V16.6451H61.795V11.2355H70.6376V9.46703H61.795V4.36956H73.5504V2.70508H59.4023V18.4136Z" fill="#C9CBD4"/>
<path d="M66.7871 0.103516L64.8105 2.28815L70.8443 0.103516H66.7871Z" fill="#C9CBD4"/>
<path d="M97.1631 16.6451V2.70508H94.9785V18.4136H109.231V16.6451H97.1631Z" fill="#C9CBD4"/>
<path fill-rule="evenodd" clip-rule="evenodd" d="M74.6934 18.4136L82.7037 2.70508H85.7205L93.8349 18.4136H91.1301L89.0495 14.3564H79.4787L77.3981 18.4136H74.6934ZM84.1601 4.88971L80.415 12.3799H88.0092L84.1601 4.88971Z" fill="#C9CBD4"/>
<path fill-rule="evenodd" clip-rule="evenodd" d="M55.7602 7.2824C55.7602 8.21867 55.4481 10.9234 51.8071 11.8597C53.1595 13.9403 56.5925 18.4136 56.5925 18.4136H53.7837L48.9983 11.8597H42.5484V18.4136H40.2598V2.70508H50.2466C53.6796 2.70508 55.5522 4.47359 55.7602 7.2824ZM42.5484 9.98718H49.9346C51.0789 9.98718 52.3272 9.67509 52.9514 8.73882C53.3675 8.11464 53.4716 7.17837 53.2635 6.45016C52.8474 5.40986 51.9111 4.57762 50.1426 4.57762H42.5484V9.98718Z" fill="#C9CBD4"/>
<path fill-rule="evenodd" clip-rule="evenodd" d="M15.916 9.98688C15.916 4.47329 20.2853 0 26.6311 0C32.9769 0 37.3462 4.47329 37.3462 9.98688C37.3462 15.8126 32.5608 19.7657 26.6311 19.7657C20.7014 19.7657 15.916 15.7085 15.916 9.98688ZM18.4126 9.98687C18.4126 14.2521 22.0536 17.7891 26.5269 17.7891C31.0002 17.7891 34.8493 14.2521 34.7453 9.98687C34.7453 5.72164 31.3123 1.97656 26.631 1.97656C21.8456 1.97656 18.4126 5.72164 18.4126 9.98687Z" fill="#C9CBD4"/>
<path d="M10.1953 8.21867H11.8598L14.7726 2.70508H12.3799L10.1953 8.21867Z" fill="#C9CBD4"/>
<path d="M2.18463 16.6451V2.70508H0V18.4136H14.2521V16.6451H2.18463Z" fill="#C9CBD4"/>
</svg>
