<svg width="73" height="24" viewBox="0 0 73 24" fill="none" xmlns="http://www.w3.org/2000/svg">
<path fill-rule="evenodd" clip-rule="evenodd" d="M11.5401 7.44081C12.7981 7.41375 13.9193 7.63021 14.9311 8.06313C15.9429 8.49605 16.7086 9.11838 17.3376 10.0113C17.9392 10.9042 18.24 12.0947 18.24 13.5558V24H12.4152V14.2864C12.3605 13.8805 12.2238 13.4746 11.923 13.2041C11.6222 12.9335 11.2393 12.7711 10.8291 12.7711H7.4382C6.97331 12.7711 6.61781 12.9335 6.317 13.2041C5.98885 13.4746 5.85211 13.8805 5.82477 14.2864V24H0V0H5.82477V7.7655C5.82477 7.7655 5.9615 7.68433 6.317 7.60316L7.7937 7.44081H11.5401ZM67.0808 7.67999H72.9329L72.9602 17.7231C72.9602 18.925 72.7414 20.0469 72.2492 20.955C71.8117 21.8899 71.128 22.6111 70.2803 23.1453C69.3778 23.6528 68.3387 23.9199 67.1081 23.9199V24H61.4201C60.0801 24 58.9042 23.7329 57.8924 23.2521C56.9079 22.798 56.1422 22.1303 55.568 21.1687C54.9937 20.2071 54.7749 19.0586 54.7202 17.7231V7.67999H60.5723V17.2156C60.5723 17.6429 60.7364 18.0169 61.0099 18.3107C61.2833 18.5778 61.6388 18.7114 62.1311 18.7381H65.5494C65.9869 18.7114 66.3698 18.5778 66.6432 18.3107C66.9167 18.0169 67.0808 17.6429 67.0808 17.2156V7.67999ZM34.4865 17.2423C34.4591 17.6697 34.3222 18.0436 34.0483 18.3374C33.747 18.6045 33.3636 18.7381 32.9254 18.7648H29.5294C29.0912 18.7381 28.7077 18.6045 28.4339 18.3374C28.1326 18.0436 27.9957 17.6697 27.9409 17.2423V7.68H22.08V17.7231C22.08 19.0586 22.3539 20.2071 22.9016 21.1687C23.4494 22.1303 24.2436 22.798 25.2295 23.2521C26.2429 23.7329 27.3658 24 28.7625 24H34.4865V23.9199C35.7189 23.9199 36.7596 23.6528 37.6087 23.1453C38.4577 22.6111 39.1423 21.8899 39.6079 20.955C40.0461 20.0469 40.2926 18.925 40.32 17.7231V7.68H34.4591V17.2423H34.4865ZM50.4001 24H44.6401V0H50.4001V24Z" fill="#C9CBD4"/>
</svg>
