<svg width="42" height="36" viewBox="0 0 42 36" fill="none" xmlns="http://www.w3.org/2000/svg">
<path fill-rule="evenodd" clip-rule="evenodd" d="M40.6922 6.664C40.0061 7.35 38.1441 7.84 36.4781 7.938C39.4181 6.958 40.5942 5.488 41.0842 4.116C40.2022 5.292 38.7322 5.88 36.9682 6.174C38.4382 5.586 40.6922 3.038 40.4962 1.666C39.9081 2.842 37.4582 4.9 34.9102 5.488C36.6742 4.704 38.2422 2.45 38.4382 0.882C37.6542 2.254 35.4002 4.018 33.6362 4.508C34.6161 3.822 35.2042 2.548 35.1062 1.764C34.0282 3.528 30.1082 5.488 27.1682 6.566C23.6402 7.938 21.5822 11.172 21.0922 13.328C19.8182 18.816 17.2702 18.914 17.2702 18.914C16.1922 18.326 15.0162 16.268 14.0362 14.112C13.1542 11.956 11.8802 10.682 10.1162 9.408C9.36106 8.83058 8.46505 8.2129 7.65623 7.65532C6.6805 6.98267 5.83165 6.3975 5.51015 6.076C5.02015 5.586 4.92215 4.998 4.92215 4.998C4.92215 4.998 4.72615 5.39 4.82415 5.88C2.57015 4.704 2.37415 2.254 2.66815 0C2.27615 0.392 1.68815 1.666 1.98215 3.822C1.49215 3.43 1.10015 2.744 1.19815 0.882C0.904151 1.372 0.512151 3.136 0.904151 5.194C0.882331 5.17218 0.858083 5.15158 0.832081 5.12948C0.624516 4.9531 0.305241 4.6818 0.218151 2.94C-0.663849 6.174 1.39415 8.232 1.68815 8.526C2.08015 8.918 1.10015 8.526 0.512151 8.036C0.806151 9.016 1.78615 9.702 2.27615 9.996C2.76615 10.29 2.17815 10.29 1.49215 9.996C1.88415 10.486 2.57015 11.074 3.06015 11.368C3.45215 11.662 2.86415 11.662 2.27615 11.564C2.57015 11.662 2.96215 11.858 3.25615 12.054C3.54788 12.1662 3.83962 12.2733 4.13017 12.3799C5.10848 12.7389 6.07344 13.0931 6.98015 13.622C8.35215 14.406 9.72415 15.386 10.8022 16.366C11.2922 16.954 11.7822 17.738 12.0762 18.424C12.495 19.5131 11.3383 19.886 10.5039 20.155C10.3623 20.2007 10.2299 20.2433 10.1162 20.286C9.23415 20.58 8.15615 21.462 8.64615 22.344C8.05815 22.736 7.76415 23.52 8.54815 24.402C8.64615 23.716 9.03815 23.226 9.33215 23.52C9.23415 23.618 9.03815 23.814 9.13615 24.01C9.18515 23.961 9.33215 23.912 9.5159 23.8507C9.69965 23.7895 9.92015 23.716 10.1162 23.618C10.7042 23.52 11.2922 23.422 11.5862 23.324C12.1742 23.226 13.0562 23.226 13.7422 23.912C14.6242 24.892 14.2322 26.264 13.8402 27.342C13.7422 27.538 13.6442 27.832 13.5462 28.126C13.4972 28.175 13.4727 28.224 13.4482 28.273C13.4237 28.322 13.3992 28.371 13.3502 28.42C13.2522 28.518 13.1542 28.616 13.0562 28.812C13.0197 28.9214 12.9968 29.0173 12.9723 29.1198C12.931 29.2927 12.8852 29.4844 12.7622 29.792C12.6642 30.478 12.2722 31.164 11.7822 30.968C11.6642 30.9287 11.5028 30.846 11.3155 30.7499C10.569 30.3673 9.41018 29.7733 8.94015 30.87C9.13615 30.674 9.82215 30.576 10.0182 30.772C9.48432 30.9499 9.51592 31.451 9.52627 31.6151C9.52732 31.6318 9.52815 31.645 9.52815 31.654C9.92015 31.262 10.2142 31.262 10.5082 31.36C10.0182 31.654 10.2142 32.046 10.3122 32.242C10.4102 31.752 11.1942 31.654 11.9782 32.144C12.1742 32.34 12.7622 32.732 13.0562 32.732C13.1542 32.83 13.3502 33.026 13.3502 33.222C13.2396 33.2589 13.07 33.2957 12.8735 33.3385C12.0252 33.5229 10.674 33.8167 11.3902 34.692C11.3902 34.398 11.8802 34.202 12.0762 34.202C11.7822 34.594 11.9782 34.986 12.1742 35.084C12.1742 34.888 12.6642 34.594 12.8602 34.594C12.5662 35.084 12.8602 35.476 13.0562 35.672C13.0562 35.182 13.5462 34.692 13.9382 34.594C13.992 34.5805 14.0496 34.5652 14.1094 34.5493C14.4844 34.4495 14.9451 34.3269 15.1142 34.496C15.3102 34.692 15.8002 35.084 16.2902 34.986C16.4862 34.986 16.7801 35.378 16.5842 35.672C17.0742 35.28 16.7802 34.692 16.4862 34.398C16.2953 34.2708 16.0631 34.1848 15.8701 34.1134C15.7658 34.0748 15.6729 34.0404 15.6042 34.006C15.4082 33.81 15.1142 33.32 15.4082 32.83L15.6042 32.634C15.6042 32.634 15.8982 32.438 16.0942 33.222C16.2901 32.242 17.1722 31.654 17.1722 31.654C17.1722 31.654 17.2702 32.046 17.4662 32.242C17.3682 31.948 17.5641 31.262 17.8582 30.674C17.8582 30.968 18.0542 31.164 18.1522 31.066C18.2502 29.596 19.4262 29.302 19.4262 29.89C19.4262 30.4522 18.9654 31.0144 18.6373 31.4148C18.565 31.5029 18.4992 31.5833 18.4462 31.654C18.0542 31.948 18.0542 32.242 18.1522 32.536C18.229 32.7666 18.3662 32.756 18.5637 32.7407C18.618 32.7365 18.6768 32.732 18.7402 32.732C18.9361 32.732 19.1322 32.928 19.2302 33.222C19.4261 33.712 19.7201 33.908 20.1122 33.908C20.4062 33.908 20.5042 34.006 20.7002 34.202C20.8962 34.398 21.0921 34.594 21.3862 34.496C21.6802 34.398 21.8762 34.496 22.0722 34.692C22.1212 34.7247 22.1702 34.7601 22.2192 34.7954C22.4642 34.9724 22.7092 35.1493 22.9542 34.986C23.2482 34.79 23.5422 34.79 23.8362 34.986C24.2282 35.28 24.5222 35.28 24.7182 35.084C25.0122 34.888 25.2082 34.79 25.5022 34.888C25.544 34.888 25.5814 34.8925 25.6163 34.8966C25.7445 34.912 25.838 34.9232 25.9922 34.692C26.0902 34.3 26.3842 34.3 26.7762 34.398C27.0702 34.496 27.2662 34.398 27.3642 34.006C27.4622 33.712 27.7562 33.614 28.0502 33.614C28.093 33.614 28.1359 33.6161 28.1779 33.6181C28.4237 33.6301 28.6382 33.6405 28.6382 33.222C28.6382 32.1414 27.8107 31.64 26.3078 30.7294C26.1751 30.649 26.0372 30.5654 25.8942 30.478C23.8362 29.008 22.8562 26.852 22.5622 25.872C22.448 25.7007 22.367 25.4962 22.2806 25.2778C22.2187 25.1213 22.154 24.9576 22.0722 24.794C25.1102 25.382 27.6582 21.168 28.1482 19.894C28.2902 19.5626 28.4379 19.1855 28.5928 18.7902C29.079 17.5491 29.6352 16.1293 30.3042 15.386C30.8922 14.798 31.9701 14.602 32.7542 14.504C32.8032 14.504 32.8521 14.4795 32.9012 14.455C32.9502 14.4305 32.9992 14.406 33.0482 14.406C34.1262 14.308 34.5182 14.112 35.1062 13.818C33.8322 14.112 33.4402 13.426 33.9302 13.328C34.5182 13.328 35.3022 13.23 36.0862 12.74C35.0082 12.838 34.8121 12.446 35.4981 12.25C36.0862 12.152 36.6742 11.956 36.9682 11.564C35.8902 11.956 35.6941 11.368 36.1842 11.172C38.1799 10.8091 38.7481 10.1104 39.2102 9.54213C39.2473 9.4965 39.2837 9.45171 39.3202 9.408C38.9282 9.604 37.9482 10.094 37.0662 10.192C36.1842 10.29 36.0862 9.8 36.8702 9.506C39.0261 8.82 40.0061 7.84 40.6922 6.664ZM13.0562 31.948C13.2522 31.458 14.2322 31.066 14.2322 31.36C14.2322 31.3838 14.2328 31.4146 14.2336 31.4513C14.2422 31.8688 14.2668 33.0498 13.5462 33.32C13.5462 33.32 13.5462 33.026 13.4482 32.83C13.5462 32.536 13.2522 32.144 13.0562 31.948Z" fill="#C9CBD4"/>
</svg>
