<svg width="110" height="22" viewBox="0 0 110 22" fill="none" xmlns="http://www.w3.org/2000/svg">
<path fill-rule="evenodd" clip-rule="evenodd" d="M24.1089 3.86662C21.4829 1.03862 17.2409 0.432617 13.6049 0.432617C9.96891 0.432617 5.52491 1.03862 2.99991 4.06862C2.99991 4.11912 2.97466 4.14437 2.94941 4.16962C2.92416 4.19487 2.89891 4.22012 2.89891 4.27062C1.58591 5.78562 0.878906 7.90662 0.878906 10.8356C0.878906 19.7236 8.15091 21.2386 13.6049 21.2386C19.1599 21.2386 26.4319 19.8246 26.4319 10.8356C26.4319 7.90662 25.6239 5.78562 24.4119 4.27062C24.3109 4.06862 24.2099 3.96762 24.1089 3.86662ZM5.32309 5.58361C7.04009 2.95761 10.2721 2.25061 13.6051 2.25061C16.9381 2.25061 20.1701 2.85661 21.8871 5.48261C21.8871 5.53311 21.9123 5.55836 21.9376 5.58361C21.9628 5.60886 21.9881 5.63411 21.9881 5.68461C21.1845 6.15565 20.343 6.50507 19.5031 6.85382C17.2813 7.77629 15.0709 8.69407 13.6051 11.8456C12.0189 8.81743 9.86655 7.95093 7.69917 7.07839C6.83039 6.72864 5.9592 6.37792 5.12109 5.88661C5.22209 5.78561 5.32309 5.68461 5.32309 5.58361ZM4.11091 10.7346C4.11091 17.8046 8.75691 19.2186 13.7059 19.2186C18.6549 19.2186 23.3009 17.8046 23.3009 10.7346C23.3009 10.1286 23.3009 9.42162 23.1999 8.81562V8.71462C22.3414 9.01762 21.5081 9.32062 20.6749 9.62362C19.8416 9.92662 19.0084 10.2296 18.1499 10.5326C16.1299 11.3406 14.9179 12.6536 13.7059 15.1786C12.4939 12.5526 11.1809 11.4416 9.26191 10.6336C8.45391 10.3306 7.62066 10.0529 6.78741 9.77512C5.95416 9.49737 5.12091 9.21962 4.31291 8.91662C4.21191 9.01762 4.21191 9.11862 4.21191 9.21962C4.11091 9.62362 4.11091 10.2296 4.11091 10.7346Z" fill="#C9CBD4"/>
<path d="M78.3461 4.06836H68.2461V8.00736H73.4981L78.3461 4.06836Z" fill="#C9CBD4"/>
<path fill-rule="evenodd" clip-rule="evenodd" d="M97.0315 4.06898H105.92C105.92 4.06898 109.859 3.86698 109.96 8.00798V17.603H99.5565C99.5565 17.603 96.2235 17.502 95.7185 14.169C94.9105 16.593 93.1935 17.502 91.3755 17.502H81.7805V7.70498L69.5595 17.502H57.2375C57.2375 17.502 55.1165 17.502 54.0055 15.684V17.502H49.5615V9.92698C49.5615 9.92698 49.8645 8.20998 47.7435 8.20998H46.3295V17.502H41.9865V8.20998H38.8555V17.502H34.3105V4.16998H49.2585C49.2585 4.16998 54.0055 3.76598 54.0055 9.11898V10.634C55.06 9.10019 57.0244 9.11315 57.826 9.11843H57.826H57.8261C57.869 9.11872 57.9086 9.11898 57.9445 9.11898H63.6005C63.6005 9.11898 63.8025 7.80598 61.7825 7.80598H54.7125V4.16998H63.6005C63.6005 4.16998 67.5395 4.06898 67.5395 7.90698V13.765L79.6595 4.16998H91.6785C91.6785 4.16998 96.2235 3.96798 96.2235 10.028V10.634C97.1849 8.99963 99.2444 9.01247 100.05 9.01749C100.091 9.01774 100.129 9.01798 100.163 9.01798H105.819L104.102 7.70498H97.0315V4.06898ZM58.7527 13.664H63.3987V11.846H58.7527C58.4497 11.846 57.7427 11.947 57.7427 12.755C57.7427 13.765 58.7527 13.664 58.7527 13.664ZM90.0625 13.462H86.0225V7.80598H90.0625C90.0625 7.80598 91.9815 8.00798 91.9815 10.432C92.0826 12.856 91.1735 13.462 90.0625 13.462ZM100.971 13.664H105.718V11.846H101.072C100.769 11.846 99.9605 11.947 99.9605 12.755C99.9605 13.765 100.971 13.664 100.971 13.664Z" fill="#C9CBD4"/>
<path d="M70.9727 17.4009H80.9717V13.4619H75.7197L70.9727 17.4009Z" fill="#C9CBD4"/>
</svg>
