<?xml version="1.0" encoding="UTF-8"?>
<svg xmlns="http://www.w3.org/2000/svg" xmlns:xlink="http://www.w3.org/1999/xlink" viewBox="0 0 1190.62 798.56">
  <defs>
    <style>
      .cls-1 {
        fill: #ad4c25;
      }

      .cls-1, .cls-2, .cls-3, .cls-4, .cls-5, .cls-6, .cls-7, .cls-8, .cls-9, .cls-10, .cls-11, .cls-12, .cls-13, .cls-14, .cls-15, .cls-16, .cls-17, .cls-18, .cls-19, .cls-20, .cls-21, .cls-22, .cls-23, .cls-24, .cls-25, .cls-26, .cls-27, .cls-28, .cls-29, .cls-30, .cls-31, .cls-32, .cls-33, .cls-34, .cls-35, .cls-36, .cls-37, .cls-38, .cls-39 {
        stroke-width: 0px;
      }

      .cls-2 {
        fill: #471f05;
      }

      .cls-3 {
        fill: #a2a7b4;
      }

      .cls-4 {
        fill: #722209;
      }

      .cls-40 {
        clip-path: url(#clippath);
      }

      .cls-5 {
        fill: #4b53bc;
      }

      .cls-6 {
        fill: none;
      }

      .cls-7, .cls-22 {
        fill: #b3dde9;
      }

      .cls-8 {
        fill: #eaeaea;
      }

      .cls-9 {
        fill: #888d9c;
      }

      .cls-10 {
        opacity: .7;
      }

      .cls-10, .cls-35 {
        fill: #fff;
      }

      .cls-11 {
        fill: #5059c9;
      }

      .cls-12 {
        fill: #f6f6f9;
      }

      .cls-13 {
        fill: #433ea8;
      }

      .cls-14 {
        fill: #ffaec3;
      }

      .cls-41 {
        clip-path: url(#clippath-1);
      }

      .cls-42 {
        clip-path: url(#clippath-4);
      }

      .cls-43 {
        clip-path: url(#clippath-3);
      }

      .cls-44 {
        clip-path: url(#clippath-2);
      }

      .cls-15 {
        fill: #ffabc5;
      }

      .cls-16 {
        opacity: .1;
      }

      .cls-16, .cls-45, .cls-37 {
        isolation: isolate;
      }

      .cls-16, .cls-37 {
        fill: #000;
      }

      .cls-17 {
        fill: #b2b2b2;
      }

      .cls-18 {
        fill: #d3d327;
      }

      .cls-19 {
        fill: #ffc5d6;
      }

      .cls-20 {
        fill: #282c36;
      }

      .cls-21 {
        fill: #ebebf0;
      }

      .cls-22 {
        mix-blend-mode: multiply;
        opacity: .67;
      }

      .cls-23 {
        fill: #d86818;
      }

      .cls-24 {
        fill: #f84338;
      }

      .cls-25 {
        fill: #7b83eb;
      }

      .cls-26 {
        fill: #5c1200;
      }

      .cls-27 {
        fill: #717682;
      }

      .cls-28 {
        fill: #471e05;
      }

      .cls-29 {
        fill: #21924e;
      }

      .cls-30 {
        fill: #7083ff;
      }

      .cls-31 {
        fill: #1f232d;
      }

      .cls-32 {
        fill: #f8f8f8;
        opacity: .8;
      }

      .cls-33 {
        fill: #9de2ef;
      }

      .cls-34 {
        fill: #ff9030;
      }

      .cls-36 {
        fill: #edd1af;
      }

      .cls-37 {
        opacity: .2;
      }

      .cls-38 {
        fill: #3f4450;
      }

      .cls-39 {
        fill: #fa4338;
      }
    </style>
    <clipPath id="clippath">
      <rect class="cls-6" x="753.7" y="469.78" width="27.3" height="47.8"/>
    </clipPath>
    <clipPath id="clippath-1">
      <rect class="cls-6" x="783.27" y="469.78" width="27.3" height="47.8"/>
    </clipPath>
    <clipPath id="clippath-2">
      <rect class="cls-6" x="754.1" y="421.06" width="27.3" height="47.8"/>
    </clipPath>
    <clipPath id="clippath-3">
      <rect class="cls-6" x="783.67" y="421.06" width="27.3" height="47.8"/>
    </clipPath>
    <clipPath id="clippath-4">
      <rect class="cls-6" x="1041.26" y="44.01" width="117.59" height="163.59" rx="1.05" ry="1.05"/>
    </clipPath>
  </defs>
  <g class="cls-45">
    <g id="Layer_1" data-name="Layer 1">
      <path class="cls-12" d="M921.09,741.75c105.05-31.83,261.22-110.67,269.53-370.74.07-221.44-172.3-267.07-353.93-327.16C581.53-33.77,256.66-15.99,94.11,159.13c-132.92,143.21-115.57,338.72-7.05,447.03,27.74,27.69,111.57,108.81,272.6,146.05,214.43,29.87,504.27,9.06,561.43-10.45h0Z"/>
      <g>
        <g>
          <rect class="cls-30" x="622.43" y="11.23" width="560.19" height="779.33" rx="21.77" ry="21.77"/>
          <path class="cls-3" d="M622.43,687.54v82.67c0,11.19,9.16,20.35,20.35,20.35h532.42c4.08,0,7.41-3.34,7.41-7.41v-95.61c0-1.32-1.07-2.4-2.4-2.4h-555.4c-1.32,0-2.4,1.07-2.4,2.4Z"/>
          <polygon class="cls-14" points="778.2 517.58 756.5 517.58 753.7 511.8 753.7 475.56 756.5 469.78 778.2 469.78 781 475.92 781 511.8 778.2 517.58"/>
          <g class="cls-40">
            <path class="cls-35" d="M751.51,496.99c-.31,0-.62-.06-.92-.19-1.2-.51-1.76-1.9-1.25-3.1,3.18-7.49,6.42-11.64,10.2-13.03,3.83-1.4,7.3.33,10.09,1.73,2.24,1.12,4.18,2.09,5.82,1.5,1.81-.64,3.7-3.11,5.61-7.33.54-1.19,1.94-1.71,3.13-1.18,1.19.54,1.72,1.94,1.18,3.13-2.53,5.59-5.18,8.72-8.34,9.84-3.55,1.25-6.72-.33-9.52-1.73-2.76-1.38-4.56-2.18-6.34-1.52-2.4.88-4.91,4.39-7.47,10.43-.38.9-1.26,1.44-2.18,1.44Z"/>
            <path class="cls-35" d="M770,510.68c-1.08,0-1.95-.28-2.62-.85-2.63-2.23-.77-5.79.87-8.93.59-1.12,1.6-3.06,1.82-4.1-2.69.72-10.26,6.41-17.09,12.93-.95.9-2.44.86-3.35-.08-.9-.95-.87-2.44.08-3.34,11.89-11.35,19.69-15.96,23.16-13.69,3.77,2.46,1.34,7.09-.43,10.47-.4.76-.97,1.86-1.33,2.71,2.26-.72,6.77-3.32,10.83-6.32,1.05-.78,2.53-.56,3.31.49.78,1.05.56,2.53-.49,3.31-6.64,4.92-11.59,7.39-14.77,7.39Z"/>
          </g>
          <path class="cls-17" d="M778.2,470.57h-21.7c-.44,0-.79-.35-.79-.79,0-.43.35-.79.79-.79h21.7c.44,0,.79.35.79.79,0,.43-.35.79-.79.79Z"/>
          <polygon class="cls-14" points="807.77 517.58 786.07 517.58 783.27 511.8 783.27 475.56 786.07 469.78 807.77 469.78 810.56 475.92 810.56 511.8 807.77 517.58"/>
          <g class="cls-41">
            <path class="cls-35" d="M781.07,496.99c-.31,0-.62-.06-.92-.19-1.2-.51-1.76-1.9-1.25-3.1,3.18-7.49,6.42-11.64,10.2-13.03,3.83-1.4,7.3.33,10.09,1.73,2.24,1.12,4.18,2.09,5.82,1.5,1.81-.64,3.7-3.11,5.61-7.33.54-1.19,1.94-1.71,3.13-1.18,1.19.54,1.72,1.94,1.18,3.13-2.53,5.59-5.18,8.72-8.34,9.84-3.55,1.25-6.72-.33-9.52-1.73-2.76-1.38-4.56-2.18-6.34-1.52-2.4.88-4.91,4.39-7.47,10.43-.38.9-1.26,1.44-2.18,1.44Z"/>
            <path class="cls-35" d="M799.56,510.68c-1.08,0-1.95-.28-2.62-.85-2.63-2.23-.77-5.79.87-8.93.59-1.12,1.6-3.06,1.82-4.1-2.69.72-10.26,6.41-17.09,12.93-.95.9-2.44.86-3.35-.08-.9-.95-.87-2.44.08-3.34,11.89-11.35,19.69-15.96,23.16-13.69,3.77,2.46,1.34,7.09-.43,10.47-.4.76-.97,1.86-1.33,2.71,2.26-.72,6.77-3.32,10.83-6.32,1.05-.78,2.53-.56,3.31.49.78,1.05.56,2.53-.49,3.31-6.64,4.92-11.59,7.39-14.77,7.39Z"/>
          </g>
          <path class="cls-17" d="M807.77,470.57h-21.7c-.44,0-.79-.35-.79-.79,0-.43.35-.79.79-.79h21.7c.44,0,.79.35.79.79,0,.43-.35.79-.79.79Z"/>
          <polygon class="cls-29" points="778.6 468.86 756.9 468.86 754.1 463.08 754.1 426.84 756.9 421.06 778.6 421.06 781.4 427.2 781.4 463.08 778.6 468.86"/>
          <g class="cls-44">
            <path class="cls-35" d="M751.9,448.27c-.31,0-.62-.06-.92-.19-1.2-.51-1.76-1.9-1.25-3.1,3.18-7.49,6.42-11.64,10.2-13.03,3.83-1.4,7.3.33,10.09,1.73,2.24,1.12,4.18,2.09,5.82,1.5,1.81-.64,3.7-3.11,5.61-7.33.54-1.19,1.94-1.71,3.13-1.18,1.19.54,1.72,1.94,1.18,3.13-2.53,5.59-5.18,8.72-8.34,9.84-3.55,1.25-6.72-.33-9.52-1.73-2.76-1.38-4.56-2.18-6.34-1.52-2.4.88-4.91,4.39-7.47,10.43-.38.9-1.26,1.44-2.18,1.44Z"/>
            <path class="cls-35" d="M770.4,461.96c-1.08,0-1.95-.28-2.62-.85-2.63-2.23-.77-5.79.87-8.93.59-1.12,1.6-3.06,1.82-4.1-2.69.72-10.26,6.41-17.09,12.93-.95.9-2.44.86-3.35-.08-.9-.95-.87-2.44.08-3.34,11.89-11.35,19.69-15.96,23.16-13.69,3.77,2.46,1.34,7.09-.43,10.47-.4.76-.97,1.86-1.33,2.71,2.26-.72,6.77-3.32,10.83-6.32,1.05-.78,2.53-.56,3.31.49.78,1.05.56,2.53-.49,3.31-6.64,4.92-11.59,7.39-14.77,7.39Z"/>
          </g>
          <path class="cls-17" d="M778.6,421.85h-21.7c-.44,0-.79-.35-.79-.79,0-.43.35-.79.79-.79h21.7c.44,0,.79.35.79.79,0,.43-.35.79-.79.79Z"/>
          <polygon class="cls-29" points="808.17 468.86 786.47 468.86 783.67 463.08 783.67 426.84 786.47 421.06 808.17 421.06 810.96 427.2 810.96 463.08 808.17 468.86"/>
          <g class="cls-43">
            <path class="cls-35" d="M781.47,448.27c-.31,0-.62-.06-.92-.19-1.2-.51-1.76-1.9-1.25-3.1,3.18-7.49,6.42-11.64,10.2-13.03,3.83-1.4,7.3.33,10.09,1.73,2.24,1.12,4.18,2.09,5.82,1.5,1.81-.64,3.7-3.11,5.61-7.33.54-1.19,1.94-1.71,3.13-1.18,1.19.54,1.72,1.94,1.18,3.13-2.53,5.59-5.18,8.72-8.34,9.84-3.55,1.25-6.72-.33-9.52-1.73-2.76-1.38-4.56-2.18-6.34-1.52-2.4.88-4.91,4.39-7.47,10.43-.38.9-1.26,1.44-2.18,1.44Z"/>
            <path class="cls-35" d="M799.96,461.96c-1.08,0-1.95-.28-2.62-.85-2.63-2.23-.77-5.79.87-8.93.59-1.12,1.6-3.06,1.82-4.1-2.69.72-10.26,6.41-17.09,12.93-.95.9-2.44.86-3.35-.08-.9-.95-.87-2.44.08-3.34,11.89-11.35,19.69-15.96,23.16-13.69,3.77,2.46,1.34,7.09-.43,10.47-.4.76-.97,1.86-1.33,2.71,2.26-.72,6.77-3.32,10.83-6.32,1.05-.78,2.53-.56,3.31.49.78,1.05.56,2.53-.49,3.31-6.64,4.92-11.59,7.39-14.77,7.39Z"/>
          </g>
          <path class="cls-17" d="M808.17,421.85h-21.7c-.44,0-.79-.35-.79-.79,0-.43.35-.79.79-.79h21.7c.44,0,.79.35.79.79,0,.43-.35.79-.79.79Z"/>
          <path class="cls-36" d="M858.8,534.52h-116.35c-1.7,0-3.09-1.38-3.09-3.09l-3.09-11.43c0-1.7,1.38-3.09,3.09-3.09h122.52c1.7,0,3.09,1.38,3.09,3.09l-3.09,11.43c0,1.7-1.38,3.09-3.09,3.09Z"/>
          <path class="cls-33" d="M847.09,466.18v48.6c0,1.55-1.26,2.81-2.81,2.81h-24.94c-1.55,0-2.81-1.26-2.81-2.81v-48.6c0-7.28,4.2-12.56,10.12-14.84v-11.88s10.32,0,10.32,0v11.88c2.18.83,4.1,2.17,5.67,3.89,2.73,3.06,4.45,6.28,4.45,10.95Z"/>
          <rect class="cls-13" x="816.59" y="468.22" width="30.43" height="19.17"/>
          <rect class="cls-13" x="824.8" y="438.48" width="14.03" height="7.4" rx=".37" ry=".37"/>
          <g>
            <path class="cls-33" d="M731.57,368.38l-57.08,17.53h16.06c4.64,0,9.13.66,13.39,1.88h3.37l24.26-19.41M738.94,208.58h-35.61s-13.48,0-13.48,0h-65.55c-2.77,0-5.01,2.35-5.01,5.26v12.81c0,2.91,2.24,5.26,5.01,5.26h3.09v56.49h-3.09c-2.77,0-5.01,2.36-5.01,5.26v12.82c0,2.9,2.24,5.26,5.01,5.26h3.09s0,29.9,0,29.9h-3.09c-2.77,0-5.01,2.35-5.01,5.26v12.82c0,2.9,2.24,5.25,5.01,5.25h3.09s28.54,22.84,28.54,22.84h3.37s-3.37,0-3.37,0l-28.54-22.84h108.47s3.09,0,3.09,0c2.77,0,5.01-2.35,5.01-5.25v-12.82c0-2.9-2.24-5.26-5.01-5.26h-3.09v-24.86l-108.47,5.04v-10.08s108.47,0,108.47,0h3.09c2.77,0,5.01-2.36,5.01-5.26v-12.82c0-2.9-2.24-5.26-5.01-5.26h-3.09s0-51.03,0-51.03l-108.47,5.04v-10.09h108.47v-.42h3.09c2.77,0,5.01-2.35,5.01-5.26v-12.81c0-2.91-2.24-5.26-5.01-5.26"/>
            <path class="cls-7" d="M735.85,364.96h-108.47s28.54,22.84,28.54,22.84h3.37c4.25-1.23,8.74-1.88,13.39-1.88h1.8s57.08-17.53,57.08-17.53l4.28-3.42"/>
            <polyline class="cls-7" points="735.85 311.73 627.39 311.73 627.39 321.82 735.85 316.77 735.85 311.73"/>
            <polyline class="cls-7" points="735.85 232.33 627.39 232.33 627.39 242.41 735.85 237.37 735.85 232.33"/>
            <path class="cls-22" d="M735.85,364.96h-108.47s28.54,22.84,28.54,22.84h3.37c4.25-1.23,8.74-1.88,13.39-1.88h1.8s57.08-17.53,57.08-17.53l4.28-3.42"/>
            <polyline class="cls-22" points="735.85 311.73 627.39 311.73 627.39 321.82 735.85 316.77 735.85 311.73"/>
            <polyline class="cls-22" points="735.85 232.33 627.39 232.33 627.39 242.41 735.85 237.37 735.85 232.33"/>
            <path class="cls-38" d="M643.61,417.99h76.01s0,8.07,0,8.07v98.85h-76.01s0-106.92,0-106.92M690.55,385.91h-17.86c-4.65,0-9.14.66-13.39,1.88-20.12,5.8-34.84,24.35-34.84,46.35v250.79h114.32s0-250.79,0-250.79c0-21.99-14.72-40.54-34.84-46.35-4.25-1.23-8.75-1.88-13.39-1.88"/>
            <polyline class="cls-3" points="643.61 417.99 643.61 417.99 643.61 524.91 719.63 524.91 719.63 426.06 643.61 444.6 643.61 417.99"/>
            <polyline class="cls-9" points="719.63 417.99 643.61 417.99 643.61 444.6 719.63 426.06 719.63 417.99"/>
            <path class="cls-32" d="M692.45,524.6h-21.1c-.88,0-1.61-.68-1.68-1.55l-3.16-39.52c-.04-.54.39-1.01.94-1.01h28.92c.54,0,.97.47.93,1.01l-3.16,39.52c-.07.87-.8,1.55-1.68,1.55"/>
            <path class="cls-33" d="M668.25,505.34l1.41,17.72c.07.87.8,1.55,1.68,1.55h21.1c.88,0,1.61-.68,1.68-1.55l1.41-17.72h-27.3Z"/>
            <polyline class="cls-10" points="694.02 486.24 689.43 486.24 690.45 511.94 690.57 514.8 690.79 520.26 690.99 520.45 691.19 520.27 694.02 486.24"/>
          </g>
          <path class="cls-27" d="M1182.62,387.04h-139.22c-17.65,0-31.96,14.31-31.96,31.96l-3.99,148.46h0c0,6.62,5.37,11.98,11.98,11.98h163.19v-192.4Z"/>
          <path class="cls-27" d="M1182.62,563.61h-158.18l-17.01-91.74c-1.9-10.22-10.82-17.64-21.22-17.64h-2.83c-.56,0-1.11.02-1.67.06-11.88.92-20.77,11.3-19.85,23.19l8.03,133.46c1.74,22.47,20.48,39.81,43.02,39.81h169.7v-87.14Z"/>
          <path class="cls-38" d="M1182.62,531.88h-150.53c-6.62,0-11.98,5.37-11.98,11.98v11.77c0,6.62,5.37,11.98,11.99,11.98h150.52v-35.74Z"/>
          <path class="cls-35" d="M980.18,492.03c.08-2.63.09-4.09.09-4.09l-4.19.22c.88,1.64,1.41,2.56,1.41,2.56-.55.52-1.1,1.04-1.64,1.55-.55.52-1.1,1.02-1.64,1.52-.09.08-.17.16-.26.24-.51.47-1.02.93-1.53,1.39-.12.11-.24.21-.35.32-.49.44-.98.88-1.47,1.31-.13.11-.26.22-.38.34-.49.43-.97.85-1.46,1.27-.12.1-.24.21-.36.31-.49.42-.99.85-1.48,1.26-.1.08-.19.16-.29.24-.52.44-1.03.87-1.55,1.29-.03.03-.07.05-.1.08-3.44,2.83-6.8,5.41-10.09,7.75-.06.04-.13.09-.19.14-.49.35-.97.69-1.46,1.02-.09.06-.17.12-.26.18-.47.33-.94.65-1.41.96-.09.06-.19.13-.28.19-.47.31-.93.62-1.4.93-.08.05-.17.11-.25.16-.48.31-.96.62-1.43.92-.05.03-.1.06-.15.09-3.7,2.35-7.3,4.39-10.78,6.15-.05.03-.1.05-.15.08-.45.23-.9.45-1.35.66-.07.03-.14.07-.21.1-.44.21-.88.42-1.31.62-.07.03-.14.07-.21.1-.44.2-.88.4-1.31.6-.06.03-.11.05-.17.07-.45.2-.9.4-1.35.59-.02,0-.04.01-.05.02-2.91,1.24-5.73,2.27-8.47,3.13-.02,0-.03.01-.05.01-.42.13-.85.26-1.27.38-.05.01-.1.03-.15.04-.41.12-.81.23-1.21.34-.06.02-.12.03-.18.05-.4.11-.79.21-1.19.31-.06.02-.12.03-.18.04-.4.1-.8.2-1.19.29-.04,0-.08.02-.13.03-3.05.71-5.99,1.19-8.82,1.46-.03,0-.06,0-.09,0-.37.04-.73.07-1.1.1-.06,0-.11,0-.17.01-.35.03-.7.05-1.05.07-.06,0-.13,0-.19.01-.35.02-.69.04-1.04.05-.06,0-.12,0-.17,0-.35.01-.7.02-1.05.03-.04,0-.08,0-.11,0-2.32.04-4.57-.06-6.74-.27,0,0-.02,0-.03,0-.33-.03-.66-.07-.99-.11-.05,0-.1-.01-.15-.02-.31-.04-.62-.08-.92-.12-.06,0-.13-.02-.19-.03-.3-.04-.6-.09-.89-.13-.07-.01-.13-.02-.2-.03-.3-.05-.59-.1-.88-.15-.06-.01-.12-.02-.18-.03-.3-.05-.6-.11-.9-.17-.04,0-.08-.02-.12-.02-2-.4-3.93-.9-5.78-1.49-.04-.01-.08-.03-.12-.04-.27-.08-.53-.17-.79-.26-.06-.02-.13-.04-.19-.06-.25-.09-.5-.17-.75-.26-.07-.03-.15-.05-.22-.08-.24-.09-.49-.18-.73-.27-.07-.03-.14-.05-.21-.08-.24-.09-.48-.19-.72-.28-.07-.03-.13-.05-.19-.08-.25-.1-.49-.2-.73-.3-.05-.02-.09-.04-.14-.06-1.41-.59-2.77-1.24-4.08-1.91-.03-.02-.07-.04-.1-.05-.22-.12-.44-.23-.66-.35-.06-.03-.13-.07-.19-.1-.21-.11-.41-.22-.61-.34-.07-.04-.15-.08-.22-.12-.2-.11-.39-.22-.58-.33-.08-.05-.16-.09-.24-.14-.19-.11-.38-.22-.57-.34-.08-.05-.15-.09-.23-.14-.19-.11-.38-.23-.56-.35-.07-.04-.14-.09-.21-.13-.19-.12-.38-.24-.57-.36-.06-.04-.11-.07-.17-.11-.2-.13-.4-.26-.6-.39,0,0,0,0,0,0-.71-.47-1.39-.95-2.06-1.43-.02-.02-.05-.03-.07-.05-.18-.13-.35-.26-.53-.39-.06-.05-.12-.09-.19-.14-.16-.12-.32-.24-.48-.36-.07-.06-.15-.11-.22-.17-.15-.12-.3-.23-.45-.35-.08-.06-.16-.12-.23-.18-.15-.12-.29-.23-.44-.35-.08-.06-.16-.13-.24-.19-.14-.11-.28-.23-.42-.35-.08-.06-.16-.13-.23-.19-.14-.12-.28-.23-.41-.35-.08-.06-.15-.13-.22-.19-.14-.12-.28-.24-.41-.35-.07-.06-.13-.11-.2-.17-.14-.13-.29-.25-.43-.38-.02-.02-.04-.04-.06-.05-.51-.46-1.01-.92-1.5-1.38-.06-.06-.12-.11-.18-.17-.12-.12-.24-.23-.36-.35-.07-.07-.14-.13-.21-.2-.11-.11-.23-.22-.34-.33-.07-.07-.15-.15-.22-.22-.11-.11-.21-.21-.32-.32-.07-.07-.15-.15-.22-.22-.1-.11-.21-.21-.31-.32-.07-.08-.15-.15-.22-.23-.1-.1-.2-.21-.3-.31-.07-.08-.14-.15-.22-.23-.1-.1-.19-.2-.29-.31-.07-.08-.14-.15-.21-.23-.09-.1-.19-.2-.28-.31-.07-.07-.13-.15-.2-.22-.09-.1-.19-.21-.28-.31-.06-.06-.11-.12-.16-.19-.19-.21-.37-.42-.55-.63-.06-.07-.12-.13-.17-.2-.08-.1-.17-.2-.25-.29-.06-.07-.13-.15-.19-.22-.08-.09-.16-.19-.23-.28-.06-.08-.13-.15-.19-.23-.07-.09-.15-.18-.22-.27-.06-.08-.13-.16-.19-.23-.07-.09-.14-.17-.21-.26-.06-.08-.12-.15-.19-.23-.07-.09-.14-.17-.2-.26-.06-.08-.12-.15-.18-.22-.07-.09-.13-.17-.2-.25-.06-.07-.11-.14-.17-.22-.06-.08-.13-.17-.19-.25-.06-.08-.11-.15-.17-.22-.06-.08-.12-.16-.18-.23-.06-.07-.11-.15-.16-.22-.06-.08-.12-.15-.17-.23-.02-.03-.04-.05-.06-.08-.14-.19-.28-.38-.42-.57-.05-.06-.09-.13-.14-.19-.05-.07-.1-.14-.15-.22-.05-.07-.09-.13-.14-.2-.05-.07-.1-.14-.15-.21-.04-.06-.09-.12-.13-.19-.05-.07-.1-.14-.14-.21-.04-.06-.08-.12-.12-.18-.05-.07-.09-.14-.14-.21-.04-.05-.07-.1-.11-.16-.05-.07-.09-.14-.14-.21-.03-.05-.06-.1-.1-.14-.05-.07-.09-.14-.13-.2-.03-.04-.06-.08-.08-.13-.05-.07-.09-.14-.14-.21-.02-.03-.03-.05-.05-.08-.25-.38-.47-.73-.66-1.04h0c-.62-1-.92-1.58-.92-1.58.23-1.02.46-2.03.68-3.02l-4.84.25s-25.4,146.38,37.94,165.66c5.65,2.52,12.1,3.92,19.46,3.94,80.6.2,81.35-172.67,81.35-172.67l-4.36.24Z"/>
          <path class="cls-18" d="M1177.6,790.56c2.76,0,5.02-2.26,5.02-5.02v-100.25c-12.91-53.4-27.92-91.25-42.74-102.89-38.82-30.5-159.43-94.27-159.43-94.27l-113.68,160.82-20.97-154.03s-117.66,59.76-145.39,91.64c-15.91,19.27-41.45,124.06-59.16,204h536.35Z"/>
          <path class="cls-34" d="M1010.78,367.34c-15.25,11.09-42.98,44.36-48.52,54.07-8.32,29.11,15.25,69.32,15.25,69.32-87.34,83.18-127.54,6.93-127.54,6.93,15.25-66.54-6.93-63.77-6.93-63.77,0,0-13.86-2.77-22.18-11.09-15.25-9.7-41.59-105.36-41.59-105.36l18.02-49.91,4.16-91.5,81.79-51.29s119.22,24.95,144.18,83.18c24.95,59.61-16.64,159.43-16.64,159.43"/>
          <path class="cls-26" d="M1074.55,196.82c-7.13-15.61-15.56-28.93-24.95-40.18l2.77-1.41s6.93-23.57-5.55-36.04c-9.71-9.7-38.82-11.09-38.82-11.09,0,0,2.77-13.86-9.7-19.41-12.48-5.54-23.57,2.77-23.57,2.77,0,0-16.64-19.41-36.04-22.18-19.41-2.77-31.89,16.64-31.89,16.64,0,0-13.86-9.7-23.57-6.93-8.32,2.77-15.25,18.02-15.25,18.02,0,0-26.34-11.09-47.14,0-8.32,5.54-12.48,20.8-15.25,36.04-1.39,6.93-24.95,12.48-24.95,33.27s18.02,42.98,18.02,42.98l8.32-34.66s2.77,15.25,19.41,16.64c16.64,1.39,36.04-16.64,36.04-16.64,0,0,19.41,24.95,49.91,34.66,26.49,8.43,52.97-8.23,59.48-12.77.99.19,1.52.29,1.52.29,0,0-15.25,102.59-11.09,108.13,1.04,2.09,5.03-1.91,10.41-6.89,3.77-10.03,10.46-16.76,21.2-19.45,18.02-2.77,36.04,4.16,30.5,38.82-2.7,22.5-10.07,33.31-19.84,36.99,1.24,7.81,3.06,10.5,4.87,12.92,0,0,30.5-24.95,49.91-59.61,15.25-26.34,29.11-79.02,15.25-110.91Z"/>
          <path class="cls-28" d="M910.53,355.05c-22.18,34.66-56.84,27.73-56.84,27.73v-20.8c24.95,4.16,56.84-6.93,56.84-6.93"/>
          <path class="cls-28" d="M853.2,323.64c4.16-5.55,6.93-11.09,9.7-15.25,5.55-9.7,9.7-19.41,13.86-29.11,2.77-5.55-6.93-8.32-9.7-2.77-5.55,15.25-13.86,30.5-23.57,44.36-1.39,2.77-5.55,5.55-4.16,9.7,1.39,5.55,9.7,6.93,15.25,8.32,5.55,1.39,9.7,1.39,15.25,1.39,8.32-2.77,8.32-12.48,1.39-12.48l-18.02-4.16Z"/>
          <ellipse class="cls-28" cx="908.41" cy="292.37" rx="11.74" ry="21.66"/>
          <ellipse class="cls-28" cx="824.27" cy="288.72" rx="11.74" ry="21.66"/>
          <path class="cls-28" d="M895.55,248.11c12.48,0,23.57,5.55,33.27,11.09,4.16,2.77,6.93,4.16,11.09,6.93l1.39,1.39,1.39,1.39,1.39,1.39c4.16,4.16,11.09-2.77,6.93-6.93-13.86-12.48-34.66-22.18-54.07-23.57-8.32-1.39-8.32,8.32-1.39,8.32"/>
          <path class="cls-28" d="M853.27,234.93c-12.48-2.77-24.95-1.39-37.43,2.77-2.77,1.39-4.16,2.77-2.77,5.55,0,2.77,2.77,4.16,5.55,2.77,11.09-2.77,22.18-4.16,33.27-2.77,2.77,0,5.55,0,5.55-2.77,0-1.39-1.39-4.16-4.16-5.55"/>
          <rect class="cls-31" x="755.61" y="623.48" width="292.79" height="115.38" rx="12.51" ry="12.51"/>
          <rect class="cls-35" x="789.35" y="670.87" width="7.02" height="20.59" rx=".76" ry=".76"/>
          <rect class="cls-35" x="813.78" y="670.87" width="7.02" height="20.59" rx=".76" ry=".76"/>
          <rect class="cls-35" x="801.56" y="663.96" width="7.02" height="34.4" rx="3.51" ry="3.51"/>
          <g>
            <path class="cls-35" d="M842.34,679.81c0-6.19,1.69-11.16,7.98-11.16s7.95,4.97,7.95,11.16-1.66,11.2-7.95,11.2-7.98-5.04-7.98-11.2ZM854.43,679.81c0-4.17-.89-7.59-4.11-7.59s-4.11,3.41-4.11,7.59.89,7.62,4.11,7.62,4.11-3.48,4.11-7.62Z"/>
            <path class="cls-35" d="M861.88,679.81c0-6.19,1.69-11.16,7.98-11.16s7.95,4.97,7.95,11.16-1.66,11.2-7.95,11.2-7.98-5.04-7.98-11.2ZM873.97,679.81c0-4.17-.89-7.59-4.11-7.59s-4.11,3.41-4.11,7.59.89,7.62,4.11,7.62,4.11-3.48,4.11-7.62Z"/>
            <path class="cls-35" d="M881.69,677.26c0-1.42,1.16-2.45,2.55-2.45s2.52,1.03,2.52,2.45-1.16,2.45-2.52,2.45-2.55-1.06-2.55-2.45ZM881.69,688.49c0-1.42,1.16-2.45,2.55-2.45s2.52,1.03,2.52,2.45-1.16,2.45-2.52,2.45-2.55-1.03-2.55-2.45Z"/>
            <path class="cls-35" d="M898.13,668.65h.26v21.96h-3.81v-16.7l-4.87,1.92v-3.58l8.41-3.61Z"/>
            <path class="cls-35" d="M919.43,682.86v3.48h-3.25v4.27h-3.88v-4.27h-10.67v-1.03l12.79-16.4h1.76v13.95h3.25ZM907.43,682.86h4.87v-6.23l-4.87,6.23Z"/>
          </g>
          <circle class="cls-24" cx="988.08" cy="681.16" r="46.82"/>
          <g id="Design">
            <path class="cls-35" d="M988.63,677.61c4.15-.03,8.29.55,12.28,1.71,1.73.72,2.6,2.67,1.99,4.44l-.31,1.51c-.88,4.57,1.33,7.86,8.78,6.56,1.82-.55,3.2-2.05,3.6-3.91.65-2.89.04-5.93-1.68-8.34-4.34-5.71-13.21-9.38-24.19-9.39-10.98,0-20.32,3.71-25.37,9.42-1.99,2.31-2.97,5.31-2.73,8.35,0,0,.34,3.42,3.11,3.9,7.29,1.29,9.91-2.01,9.61-6.58l-.13-1.51c-.32-1.9.75-3.76,2.55-4.44,4.07-1.16,8.28-1.74,12.5-1.73Z"/>
          </g>
          <g class="cls-42">
            <rect class="cls-12" x="1041.26" y="44.01" width="117.59" height="163.59" rx="2.1" ry="2.1"/>
            <g>
              <path class="cls-15" d="M1160.77,210.83c-4.18-17.1-14.41-39.31-16.4-42.92-3.41-6.2-28.63-20.39-28.63-20.39l-28.6.14s-22.81,13.22-28.8,21.78c-2.95,4.22-5.92,22.74-8.17,40.41l110.59.98Z"/>
              <path class="cls-4" d="M1112.3,127.82c-4.17,4.26-32.32,12.28-37,3.67-4.68-8.61-.03-27.58-1.3-30.88l38.3,27.22Z"/>
              <path class="cls-23" d="M1117.07,119.75c-2.88,2.71-5.39,7.16-5.39,7.16l4.06,20.6s-3.71,19.96-19.31,18.25c-15.61-1.72-9.28-18.11-9.28-18.11,5.5-8.77,4.43-16.28,4.43-16.28,0,0-3.53,1.02-7.59-1.33-8.81-5.63-13.06-16.37-13.06-18.98,0-2.61,2.66-5.33,3.01-9.18.6-6.6-.98-14.75,1.08-20.49,3.27-9.08,11.93-10.94,11.93-10.94,0,0,25.36,1.69,32.35,13.03,7.02,11.37-2.23,36.27-2.23,36.27Z"/>
              <path class="cls-4" d="M1129.22,131.34c-4.17,4.26-20.23,9.81-23.61,3.67-3.37-6.14,11.96-26.17,10.69-29.47,1.89-21.07-25.64-33.39-25.64-33.39,0,0,25.99-13.95,38.81,2.74,15.34,21.03,3.92,52.18-.25,56.46Z"/>
              <path class="cls-23" d="M1116.33,111.47c3.23.48,5.74-.94,5.92-6.29.18-5.35-3.15-6-6.27-5.2-3.13.8-4.08,3.08-3.79,6.25.3,3.17.91,4.76,4.14,5.24"/>
              <path class="cls-2" d="M1094.45,104.32c-.08,2.18.93,4.03,2.26,4.13,1.33.11,2.47-1.57,2.55-3.75.09-2.18-.93-4.03-2.26-4.14-1.33-.1-2.47,1.58-2.55,3.75"/>
              <path class="cls-2" d="M1090.33,121.67c.19,0,4.66-.04,7.75-4.16l-.22-1.61-1.61.22c-2.41,3.2-5.88,3.25-5.92,3.25l-1.15,1.15,1.15,1.15Z"/>
              <path class="cls-2" d="M1103.7,99.6l.74-.27.15-1.62c-.14-.16-3.38-3.99-9.72-4.09h-.02l-1.15,1.13,1.13,1.17c5.23.07,7.88,3.13,7.99,3.26l.89.42Z"/>
              <path class="cls-2" d="M1082.54,104.32c.08,2.18-.93,4.03-2.26,4.13-1.33.11-2.47-1.57-2.55-3.75-.09-2.18.93-4.03,2.26-4.14,1.33-.1,2.47,1.58,2.55,3.75"/>
              <path class="cls-2" d="M1074,99.6l.89-.42c.11-.13,2.75-3.18,7.99-3.26l1.13-1.17-1.15-1.13h-.02c-6.33.1-9.58,3.93-9.72,4.09l.15,1.62.74.27Z"/>
              <path class="cls-2" d="M1088.55,113.01l1.09-.78-.72-1.46-1.57-1.2.8-1.41c.77-1.16,1.83-2.78,2.23-4.98l-.92-1.35-1.35.92-1.89,4.13-1.14,3.1c.36,1.99,2.81,2.86,3.09,2.96l.37.06Z"/>
              <path class="cls-4" d="M1101.28,78.19l-31.38,17.3s-5.46-41.05,41.53-28.8l-10.15,11.51Z"/>
              <path class="cls-8" d="M1086.48,149.76s12.79,14.71,27.48,1.09l-11.89,52.03-.65,6.97h-8.43s.62-6.97.62-6.97l-7.13-53.12Z"/>
              <polygon class="cls-19" points="1087.14 144.63 1077.73 153.07 1074.4 165.9 1082.55 165.9 1077.23 171.79 1093.61 202.87 1087.14 144.63"/>
              <polygon class="cls-19" points="1115.75 141.98 1124.63 151.12 1126.56 164.14 1118.45 163.52 1123.23 169.8 1102.07 202.87 1115.75 141.98"/>
            </g>
            <path class="cls-34" d="M1105.16,227.3l-14.45.14s-19.17-.1-23.01-.66c-3.84-.55,2.25-10.64,9.3-13.36,7.34-2.73,17.13,3.07,17.13,3.07l9.52-1.6,1.5,12.4Z"/>
            <path class="cls-1" d="M1164.81,266.23c-5.34,9.4-88.54-3.22-88.54-3.22-16.91,4.8-28.18,3.07-30.23,1.06-2.06-2.01.05-15.3,8.6-17.54,8.52-2.25,19.43,1.37,19.43,1.37l64.56,1.45-6.29-31.36,28.98-6.4s8.83,45.23,3.49,54.63Z"/>
          </g>
        </g>
        <path class="cls-21" d="M1160.85,798.56h-516.65c-16.41,0-29.77-13.35-29.77-29.77V32.99c0-16.41,13.35-29.77,29.77-29.77h516.65c16.41,0,29.77,13.35,29.77,29.77v735.79c0,16.41-13.35,29.77-29.77,29.77ZM644.2,19.23c-7.59,0-13.77,6.18-13.77,13.77v735.79c0,7.59,6.17,13.77,13.77,13.77h516.65c7.59,0,13.77-6.18,13.77-13.77V32.99c0-7.59-6.18-13.77-13.77-13.77h-516.65Z"/>
      </g>
      <g>
        <g>
          <path class="cls-35" d="M24.51,144.42v512.95c0,9.7,7.86,17.57,17.57,17.57h499.79c9.7,0,17.57-7.86,17.57-17.57V246.3l29.61-20.83c3.54-3.54,3.54-9.27,0-12.81l-29.39-20.61-.22-8.56v-39.09c0-9.7-7.86-17.57-17.57-17.57H42.08c-9.7,0-17.57,7.86-17.57,17.57Z"/>
          <path class="cls-21" d="M541.87,126.85c9.7,0,17.57,7.87,17.57,17.57v39.09l.22,8.56,29.39,20.61c3.54,3.54,3.54,9.27,0,12.81l-29.61,20.83v411.06c0,9.7-7.86,17.57-17.57,17.57H42.08c-9.7,0-17.57-7.86-17.57-17.57V144.42c0-9.7,7.86-17.57,17.57-17.57h499.79M541.87,114.85H42.08c-16.3,0-29.57,13.26-29.57,29.57v512.95c0,16.3,13.26,29.57,29.57,29.57h499.79c16.3,0,29.57-13.26,29.57-29.57V252.53l24.51-17.24c.56-.4,1.09-.84,1.58-1.33,8.21-8.21,8.21-21.57,0-29.78-.49-.49-1.03-.94-1.6-1.34l-24.44-17.13-.06-2.36v-38.93c0-16.3-13.26-29.57-29.57-29.57h0Z"/>
        </g>
        <g>
          <rect class="cls-39" x="107.84" y="531.07" width="128.34" height="57.04" rx="8.56" ry="8.56"/>
          <g>
            <path class="cls-35" d="M142.71,562.45h-7.03l-1.57,4.28h-2.66l6.42-16.95h2.71l6.4,16.95h-2.66l-1.6-4.28ZM141.9,560.24l-2.71-7.31-2.71,7.31h5.41Z"/>
            <path class="cls-35" d="M159.51,560.16v6.57h-2.41v-6.4c0-1.87-1.13-2.95-2.61-2.95s-3.32.84-3.32,3.22v6.12h-2.41v-11.49h2.41v1.77c.66-1.4,2.51-2.02,3.74-2.02,2.9,0,4.62,1.89,4.6,5.17Z"/>
            <path class="cls-35" d="M162.11,563.24h2.24c0,.91.81,1.7,2.12,1.7s2.14-.61,2.14-1.48c0-.76-.62-1.16-1.48-1.35l-1.55-.37c-2.14-.57-3.12-1.67-3.12-3.37,0-1.87,1.7-3.37,4.08-3.37,1.97,0,4.08,1.03,4.08,3.44h-2.31c0-.84-.86-1.4-1.72-1.4-1.01,0-1.7.62-1.7,1.4,0,.71.66,1.11,1.38,1.28l1.75.42c2.46.61,3,2.14,3,3.37,0,2.19-2.16,3.47-4.53,3.47-2.14,0-4.33-1.35-4.38-3.74Z"/>
            <path class="cls-35" d="M190.55,555.24l-4.21,11.49h-2.04l-2.98-8.24-2.88,8.24h-1.99l-4.35-11.49h2.61l2.75,7.85,2.73-7.85h2.26l2.75,7.85,2.73-7.85h2.61Z"/>
            <path class="cls-35" d="M203.36,561.96h-9.15c.32,1.87,1.7,2.78,3.57,2.78,1.33,0,2.58-.57,3.22-1.62l1.92.96c-1.01,1.92-3.07,2.9-5.26,2.9-3.32,0-5.93-2.39-5.93-6.03s2.66-5.95,5.93-5.95,5.76,2.31,5.76,5.93c0,.32-.02.66-.05,1.03ZM201,560.01c-.22-1.8-1.55-2.78-3.32-2.78s-3.1.88-3.44,2.78h6.76Z"/>
            <path class="cls-35" d="M213.83,555.42l-.42,2.29c-.64-.29-1.23-.39-1.7-.39-2.09,0-3.07,2.19-3.07,5.29v4.13h-2.44v-11.49h2.44v2.58c.59-2.02,1.75-2.83,3.22-2.83.79,0,1.6.2,1.97.42Z"/>
          </g>
        </g>
        <g>
          <path class="cls-20" d="M112.09,306.7h4.7v31.47h-4.7v-31.47Z"/>
          <path class="cls-20" d="M144.29,325.97v12.19h-4.48v-11.87c0-3.47-2.1-5.48-4.84-5.48s-6.17,1.55-6.17,5.98v11.37h-4.48v-21.33h4.48v3.29c1.23-2.6,4.66-3.74,6.94-3.74,5.39,0,8.59,3.52,8.54,9.59Z"/>
          <path class="cls-20" d="M149.31,327.48c0-6.76,5.34-11.1,11.51-11.1,3.47,0,6.44,1.42,8.31,3.65l-2.97,2.79c-1.23-1.37-3.11-2.24-5.25-2.24-3.97,0-7.12,2.83-7.12,6.9s3.15,6.9,7.12,6.9c2.15,0,4.02-.87,5.25-2.24l2.97,2.79c-1.87,2.24-4.84,3.65-8.31,3.65-6.17,0-11.51-4.34-11.51-11.1Z"/>
          <path class="cls-20" d="M172.06,327.43c0-6.76,5.11-11.05,11.19-11.05s11.23,4.29,11.23,11.05-5.16,11.19-11.23,11.19-11.19-4.43-11.19-11.19ZM190.01,327.43c0-4.11-3.11-6.85-6.76-6.85s-6.71,2.74-6.71,6.85,3.06,6.94,6.71,6.94,6.76-2.79,6.76-6.94Z"/>
          <path class="cls-20" d="M233.44,325.97v12.19h-4.52v-11.87c0-3.52-1.83-5.57-4.7-5.57-3.06-.05-5.07,2.15-5.34,5.3v12.15h-4.52v-11.92c0-3.52-1.83-5.53-4.48-5.53-2.79,0-5.62,1.69-5.62,6.03v11.42h-4.48v-21.33h4.48v3.38c.96-2.37,3.74-3.84,6.67-3.84s5.71,1.55,6.94,4.29c1.92-3.61,5.25-4.29,7.35-4.29,5.34,0,8.22,3.52,8.22,9.59Z"/>
          <path class="cls-20" d="M239.02,309.07c0-1.64,1.42-2.88,3.06-2.88s3.06,1.23,3.06,2.88-1.37,2.88-3.06,2.88-3.06-1.23-3.06-2.88ZM239.84,316.84h4.48v21.33h-4.48v-21.33Z"/>
          <path class="cls-20" d="M270.99,325.97v12.19h-4.48v-11.87c0-3.47-2.1-5.48-4.84-5.48s-6.17,1.55-6.17,5.98v11.37h-4.48v-21.33h4.48v3.29c1.23-2.6,4.66-3.74,6.94-3.74,5.39,0,8.59,3.52,8.54,9.59Z"/>
          <path class="cls-20" d="M298.48,316.84v18.13c0,9.91-4.57,13.84-11.74,13.84-4.02,0-7.76-2.1-9.77-5.89l3.79-1.87c1.19,2.28,3.65,3.61,5.98,3.61,4.48,0,7.26-2.56,7.26-9.32v-.27c-1.46,2.33-4.52,3.56-7.35,3.56-5.8,0-10.6-4.38-10.6-11.14s4.8-11.1,10.55-11.1c2.97,0,5.94,1.19,7.4,3.56v-3.11h4.48ZM293.96,327.43c0-4.29-3.52-6.8-6.81-6.8-3.65,0-6.62,2.79-6.62,6.8s2.97,6.94,6.62,6.94,6.81-2.65,6.81-6.94Z"/>
          <path class="cls-20" d="M335.7,316.84l-8.91,21.33h-4.25l-8.91-21.33h4.8l6.21,15.53,6.21-15.53h4.84Z"/>
          <path class="cls-20" d="M338.77,309.07c0-1.64,1.42-2.88,3.06-2.88s3.06,1.23,3.06,2.88-1.37,2.88-3.06,2.88-3.06-1.23-3.06-2.88ZM339.59,316.84h4.48v21.33h-4.48v-21.33Z"/>
          <path class="cls-20" d="M371.88,305.28v32.88h-4.48v-3.2c-1.42,2.42-4.48,3.65-7.35,3.65-5.8,0-10.6-4.38-10.6-11.14s4.8-11.1,10.55-11.1c3.01,0,5.98,1.19,7.4,3.61v-14.71h4.48ZM367.36,327.43c0-4.29-3.52-6.8-6.81-6.8-3.65,0-6.62,2.79-6.62,6.8s2.97,6.94,6.62,6.94,6.81-2.65,6.81-6.94Z"/>
          <path class="cls-20" d="M398.78,329.3h-16.99c.59,3.47,3.15,5.16,6.62,5.16,2.47,0,4.79-1.05,5.98-3.01l3.56,1.78c-1.87,3.56-5.71,5.39-9.77,5.39-6.17,0-11.01-4.43-11.01-11.19s4.93-11.05,11.01-11.05,10.69,4.29,10.69,11.01c0,.59-.05,1.23-.09,1.92ZM394.39,325.7c-.41-3.33-2.88-5.16-6.17-5.16s-5.75,1.64-6.39,5.16h12.56Z"/>
          <path class="cls-20" d="M402.71,327.43c0-6.76,5.11-11.05,11.19-11.05s11.23,4.29,11.23,11.05-5.16,11.19-11.23,11.19-11.19-4.43-11.19-11.19ZM420.66,327.43c0-4.11-3.11-6.85-6.76-6.85s-6.71,2.74-6.71,6.85,3.06,6.94,6.71,6.94,6.76-2.79,6.76-6.94Z"/>
          <path class="cls-20" d="M440.43,327.48c0-6.76,5.34-11.1,11.51-11.1,3.47,0,6.44,1.42,8.31,3.65l-2.97,2.79c-1.23-1.37-3.11-2.24-5.25-2.24-3.97,0-7.12,2.83-7.12,6.9s3.15,6.9,7.12,6.9c2.15,0,4.02-.87,5.25-2.24l2.97,2.79c-1.87,2.24-4.84,3.65-8.31,3.65-6.17,0-11.51-4.34-11.51-11.1Z"/>
          <path class="cls-20" d="M485.65,316.84v21.33h-4.48v-3.2c-1.42,2.42-4.48,3.65-7.35,3.65-5.8,0-10.6-4.38-10.6-11.14s4.8-11.1,10.55-11.1c3.01,0,5.98,1.19,7.4,3.61v-3.15h4.48ZM481.13,327.43c0-4.29-3.52-6.8-6.81-6.8-3.65,0-6.62,2.79-6.62,6.8s2.97,6.94,6.62,6.94,6.81-2.65,6.81-6.94Z"/>
          <path class="cls-20" d="M492.32,305.28h4.48v32.88h-4.48v-32.88Z"/>
          <path class="cls-20" d="M503.51,305.28h4.48v32.88h-4.48v-32.88Z"/>
          <path class="cls-20" d="M117.52,369.18v2.47h4.89v3.74h-4.89v17.58h-4.48v-17.58h-4.11v-3.74h4.11v-1.96c0-5.8,2.51-9.59,8.31-9.59h2.38v4.25h-1.55c-3.7,0-4.7,2.15-4.66,4.84Z"/>
          <path class="cls-20" d="M140.77,371.96l-.78,4.25c-1.19-.55-2.28-.73-3.15-.73-3.88,0-5.71,4.06-5.71,9.82v7.67h-4.52v-21.33h4.52v4.8c1.1-3.75,3.24-5.25,5.98-5.25,1.46,0,2.97.37,3.65.78Z"/>
          <path class="cls-20" d="M142.65,382.24c0-6.76,5.11-11.05,11.19-11.05s11.23,4.29,11.23,11.05-5.16,11.19-11.23,11.19-11.19-4.43-11.19-11.19ZM160.59,382.24c0-4.11-3.11-6.85-6.76-6.85s-6.71,2.74-6.71,6.85,3.06,6.94,6.71,6.94,6.76-2.79,6.76-6.94Z"/>
          <path class="cls-20" d="M204.03,380.78v12.19h-4.52v-11.87c0-3.52-1.83-5.57-4.7-5.57-3.06-.05-5.07,2.15-5.34,5.3v12.15h-4.52v-11.92c0-3.52-1.83-5.53-4.48-5.53-2.79,0-5.62,1.69-5.62,6.03v11.42h-4.48v-21.33h4.48v3.38c.96-2.37,3.74-3.84,6.67-3.84s5.71,1.55,6.94,4.29c1.92-3.61,5.25-4.29,7.35-4.29,5.34,0,8.22,3.52,8.22,9.59Z"/>
          <path class="cls-20" d="M227.41,365.8v9.54h11.01v4.29h-11.01v13.34h-4.7v-31.47h18.59v4.29h-13.88Z"/>
          <path class="cls-20" d="M258.43,371.96l-.78,4.25c-1.19-.55-2.28-.73-3.15-.73-3.88,0-5.71,4.06-5.71,9.82v7.67h-4.52v-21.33h4.52v4.8c1.1-3.75,3.24-5.25,5.98-5.25,1.46,0,2.97.37,3.65.78Z"/>
          <path class="cls-20" d="M260.3,382.24c0-6.76,5.11-11.05,11.19-11.05s11.23,4.29,11.23,11.05-5.16,11.19-11.23,11.19-11.19-4.43-11.19-11.19ZM278.25,382.24c0-4.11-3.11-6.85-6.76-6.85s-6.71,2.74-6.71,6.85,3.06,6.94,6.71,6.94,6.76-2.79,6.76-6.94Z"/>
          <path class="cls-20" d="M307.98,380.78v12.19h-4.48v-11.87c0-3.47-2.1-5.48-4.84-5.48s-6.17,1.55-6.17,5.98v11.37h-4.48v-21.33h4.48v3.29c1.23-2.6,4.66-3.74,6.94-3.74,5.39,0,8.59,3.52,8.54,9.59Z"/>
          <path class="cls-20" d="M324.93,375.39h-4.57v17.58h-4.48v-17.58h-3.84v-3.74h3.84v-7.99h4.48v7.99h4.57v3.74Z"/>
          <path class="cls-20" d="M341.46,361.51h12.24c9,0,14.25,6.85,14.25,15.8s-5.25,15.66-14.25,15.66h-12.24v-31.47ZM353.7,388.68c6.3,0,9.54-4.98,9.54-11.37s-3.24-11.51-9.54-11.51h-7.54v22.88h7.54Z"/>
          <path class="cls-20" d="M393.76,384.11h-16.99c.59,3.47,3.15,5.16,6.62,5.16,2.47,0,4.79-1.05,5.98-3.01l3.56,1.78c-1.87,3.56-5.71,5.39-9.77,5.39-6.17,0-11.01-4.43-11.01-11.19s4.93-11.05,11.01-11.05,10.69,4.29,10.69,11.01c0,.59-.05,1.23-.09,1.92ZM389.37,380.5c-.41-3.33-2.88-5.16-6.17-5.16s-5.75,1.64-6.39,5.16h12.56Z"/>
          <path class="cls-20" d="M397.5,386.49h4.16c0,1.69,1.51,3.15,3.93,3.15s3.97-1.14,3.97-2.74c0-1.42-1.14-2.15-2.74-2.51l-2.88-.69c-3.97-1.05-5.8-3.11-5.8-6.26,0-3.47,3.15-6.26,7.58-6.26,3.65,0,7.58,1.92,7.58,6.39h-4.29c0-1.55-1.6-2.6-3.2-2.6-1.87,0-3.15,1.14-3.15,2.6,0,1.32,1.23,2.06,2.56,2.38l3.24.78c4.57,1.14,5.57,3.97,5.57,6.26,0,4.06-4.02,6.44-8.4,6.44-3.97,0-8.04-2.51-8.13-6.94Z"/>
          <path class="cls-20" d="M433.08,392.97l-9.32-10.14v10.14h-4.48v-32.88h4.48v18.82l6.99-7.26h6.07l-9,9.23,11.1,12.1h-5.85Z"/>
          <path class="cls-20" d="M473.46,371.64v21.33h-4.48v-3.2c-1.42,2.42-4.48,3.65-7.35,3.65-5.8,0-10.6-4.38-10.6-11.14s4.8-11.1,10.55-11.1c3.01,0,5.98,1.19,7.4,3.61v-3.15h4.48ZM468.93,382.24c0-4.29-3.52-6.8-6.81-6.8-3.65,0-6.62,2.79-6.62,6.8s2.97,6.94,6.62,6.94,6.81-2.65,6.81-6.94Z"/>
          <path class="cls-20" d="M490.95,375.39h-4.57v17.58h-4.48v-17.58h-3.84v-3.74h3.84v-7.99h4.48v7.99h4.57v3.74Z"/>
          <path class="cls-20" d="M110.13,438.65h4.66c.09,2.69,2.6,5.3,6.53,5.3s5.94-2.28,5.94-4.89c0-2.79-2.51-4.11-5.07-4.8l-4.02-1c-6.71-1.69-7.81-5.66-7.81-8.27,0-5.53,4.89-9.04,10.46-9.04s10.09,3.56,10.09,9.27h-4.66c0-2.97-2.33-4.98-5.57-4.98-2.97,0-5.62,1.78-5.62,4.66,0,1,.32,3.11,4.29,4.11l3.97,1c5.3,1.32,8.63,4.2,8.63,8.81,0,5.25-4.29,9.41-10.64,9.41-6.71,0-11.19-4.52-11.19-9.59Z"/>
          <path class="cls-20" d="M158.45,426.45v21.33h-4.48v-3.2c-1.42,2.42-4.48,3.65-7.35,3.65-5.8,0-10.6-4.38-10.6-11.14s4.8-11.1,10.55-11.1c3.01,0,5.98,1.19,7.4,3.61v-3.15h4.48ZM153.93,437.05c0-4.29-3.52-6.8-6.81-6.8-3.65,0-6.62,2.79-6.62,6.8s2.97,6.94,6.62,6.94,6.81-2.65,6.81-6.94Z"/>
          <path class="cls-20" d="M185.07,435.59v12.19h-4.48v-11.87c0-3.47-2.1-5.48-4.84-5.48s-6.17,1.55-6.17,5.98v11.37h-4.48v-21.33h4.48v3.29c1.23-2.6,4.66-3.75,6.94-3.75,5.39,0,8.59,3.52,8.54,9.59Z"/>
          <path class="cls-20" d="M208.46,420.61v9.54h11.01v4.29h-11.01v13.34h-4.7v-31.47h18.59v4.29h-13.88Z"/>
          <path class="cls-20" d="M239.47,426.77l-.78,4.25c-1.19-.55-2.28-.73-3.15-.73-3.88,0-5.71,4.06-5.71,9.82v7.67h-4.52v-21.33h4.52v4.8c1.1-3.75,3.24-5.25,5.98-5.25,1.46,0,2.97.37,3.65.78Z"/>
          <path class="cls-20" d="M263.81,426.45v21.33h-4.48v-3.2c-1.42,2.42-4.48,3.65-7.35,3.65-5.8,0-10.6-4.38-10.6-11.14s4.8-11.1,10.55-11.1c3.01,0,5.98,1.19,7.4,3.61v-3.15h4.48ZM259.29,437.05c0-4.29-3.52-6.8-6.81-6.8-3.65,0-6.62,2.79-6.62,6.8s2.97,6.94,6.62,6.94,6.81-2.65,6.81-6.94Z"/>
          <path class="cls-20" d="M290.44,435.59v12.19h-4.48v-11.87c0-3.47-2.1-5.48-4.84-5.48s-6.17,1.55-6.17,5.98v11.37h-4.48v-21.33h4.48v3.29c1.23-2.6,4.66-3.75,6.94-3.75,5.39,0,8.59,3.52,8.54,9.59Z"/>
          <path class="cls-20" d="M295.47,437.1c0-6.76,5.34-11.1,11.51-11.1,3.47,0,6.44,1.42,8.31,3.65l-2.97,2.79c-1.23-1.37-3.11-2.24-5.25-2.24-3.97,0-7.12,2.83-7.12,6.9s3.15,6.9,7.12,6.9c2.15,0,4.02-.87,5.25-2.24l2.97,2.79c-1.87,2.24-4.84,3.65-8.31,3.65-6.17,0-11.51-4.34-11.51-11.1Z"/>
          <path class="cls-20" d="M319.31,418.69c0-1.64,1.42-2.88,3.06-2.88s3.06,1.23,3.06,2.88-1.37,2.88-3.06,2.88-3.06-1.23-3.06-2.88ZM320.13,426.45h4.48v21.33h-4.48v-21.33Z"/>
          <path class="cls-20" d="M329.77,441.3h4.16c0,1.69,1.51,3.15,3.93,3.15s3.97-1.14,3.97-2.74c0-1.42-1.14-2.15-2.74-2.51l-2.88-.68c-3.97-1.05-5.8-3.11-5.8-6.26,0-3.47,3.15-6.26,7.58-6.26,3.65,0,7.58,1.92,7.58,6.39h-4.29c0-1.55-1.6-2.6-3.2-2.6-1.87,0-3.15,1.14-3.15,2.6,0,1.32,1.23,2.05,2.56,2.38l3.24.78c4.57,1.14,5.57,3.97,5.57,6.26,0,4.06-4.02,6.44-8.4,6.44-3.97,0-8.04-2.51-8.13-6.94Z"/>
          <path class="cls-20" d="M350.18,437.1c0-6.76,5.34-11.1,11.51-11.1,3.47,0,6.44,1.42,8.31,3.65l-2.97,2.79c-1.23-1.37-3.11-2.24-5.25-2.24-3.97,0-7.12,2.83-7.12,6.9s3.15,6.9,7.12,6.9c2.15,0,4.02-.87,5.25-2.24l2.97,2.79c-1.87,2.24-4.84,3.65-8.31,3.65-6.17,0-11.51-4.34-11.51-11.1Z"/>
          <path class="cls-20" d="M372.93,437.05c0-6.76,5.11-11.05,11.19-11.05s11.23,4.29,11.23,11.05-5.16,11.19-11.23,11.19-11.19-4.43-11.19-11.19ZM390.88,437.05c0-4.11-3.11-6.85-6.76-6.85s-6.71,2.74-6.71,6.85,3.06,6.94,6.71,6.94,6.76-2.79,6.76-6.94Z"/>
          <path class="cls-20" d="M436.87,416.31v31.47h-4.7v-13.52h-14.52v13.52h-4.7v-31.47h4.7v13.7h14.52v-13.7h4.7Z"/>
          <path class="cls-20" d="M467.79,445.73l3.2,5.16-3.52,2.15-3.47-5.53c-1.51.46-3.15.73-4.89.73-8.95,0-15.89-7.22-15.89-16.12s6.94-16.17,15.89-16.17,15.98,7.22,15.98,16.17c0,5.71-2.88,10.73-7.31,13.61ZM461.58,443.58l-3.24-5.21,3.52-2.19,3.56,5.71c3.06-2.1,4.98-5.71,4.98-9.77,0-6.48-4.84-11.78-11.28-11.78s-11.19,5.3-11.19,11.78,4.79,11.74,11.19,11.74c.87,0,1.69-.09,2.47-.27Z"/>
        </g>
        <g>
          <circle class="cls-25" cx="145.17" cy="184.95" r="10.25"/>
          <path class="cls-16" d="M144.44,187.14h-9.28l.05.2v.02s.05.19.05.19c1.4,5.31,6.74,8.58,12.11,7.4v-4.89c0-1.61-1.31-2.92-2.93-2.93Z"/>
          <path class="cls-37" d="M142.24,189.34h-6.33c1.7,3.58,5.3,5.86,9.26,5.86v-2.93c0-1.61-1.31-2.92-2.93-2.93Z"/>
          <circle class="cls-11" cx="168.23" cy="188.24" r="7.69"/>
          <path class="cls-11" d="M174.82,198.12h-17.26c-.78,0-1.41.63-1.41,1.41v17.81c-.1,5.31,3.53,9.97,8.71,11.16,5.94,1.25,11.77-2.56,13.02-8.5.16-.74.23-1.49.23-2.25v-16.33c0-1.82-1.47-3.29-3.29-3.29Z"/>
          <path class="cls-25" d="M162.74,201.42v20.86c0,9.7-7.85,17.56-17.55,17.57-6.28,0-12.08-3.34-15.22-8.78-.42-.7-.79-1.44-1.1-2.2-.29-.72-.53-1.45-.72-2.2-.36-1.44-.55-2.91-.55-4.39v-20.86c0-1.82,1.47-3.29,3.28-3.29,0,0,0,0,0,0h28.55c1.82,0,3.29,1.47,3.29,3.28,0,0,0,0,0,0Z"/>
          <path class="cls-37" d="M142.24,189.34h-6.33c1.7,3.58,5.3,5.86,9.26,5.86v-2.93c0-1.61-1.31-2.92-2.93-2.93Z"/>
          <path class="cls-16" d="M147.37,198.12v27.82c0,1.36-.95,2.54-2.28,2.83-.21.06-.42.09-.64.09h-15.57c-.29-.72-.53-1.45-.72-2.2-.36-1.44-.55-2.91-.55-4.39v-20.86c0-1.82,1.47-3.29,3.28-3.29,0,0,0,0,0,0h16.47Z"/>
          <path class="cls-37" d="M145.17,198.12v30.02c0,.22-.03.43-.09.64-.29,1.33-1.47,2.28-2.83,2.28h-12.27c-.42-.7-.79-1.44-1.1-2.2-.29-.72-.53-1.45-.72-2.2-.36-1.44-.55-2.91-.55-4.39v-20.86c0-1.82,1.47-3.29,3.28-3.29,0,0,0,0,0,0h14.27Z"/>
          <path class="cls-37" d="M145.17,198.12v25.63c0,1.61-1.31,2.91-2.92,2.92h-14.1c-.36-1.44-.55-2.91-.55-4.39v-20.86c0-1.82,1.47-3.29,3.28-3.29,0,0,0,0,0,0h14.27Z"/>
          <path class="cls-37" d="M130.9,198.12c-1.82,0-3.29,1.47-3.29,3.28,0,0,0,0,0,0v20.86c0,1.48.19,2.96.55,4.39h11.9c1.61,0,2.91-1.31,2.92-2.92v-25.63h-12.08Z"/>
          <path class="cls-5" d="M110.77,189.34h29.28c1.62,0,2.93,1.31,2.93,2.93h0v29.28c0,1.62-1.31,2.93-2.93,2.93h-29.28c-1.62,0-2.93-1.31-2.93-2.93h0v-29.28c0-1.62,1.31-2.93,2.93-2.93h0Z"/>
          <path class="cls-35" d="M134.15,200.26h-6.57v17.61h-4.31v-17.61h-6.61v-4.33h17.48v4.33Z"/>
          <path class="cls-6" d="M107.84,171.77h70.27v70.27h-70.27v-70.27Z"/>
        </g>
        <g>
          <path class="cls-20" d="M213.51,188.68h-7.8v4.93h6.17v2.87h-6.17v7.48h-3.21v-18.16h11.02v2.87Z"/>
          <path class="cls-20" d="M223.6,191.76l-.61,2.9c-.71-.37-1.34-.45-1.79-.45-2,0-3.11,2-3.11,5.45v4.3h-3.08v-12.31h3.06v2.63c.66-2.06,2-2.95,3.53-2.95.74,0,1.53.16,2,.42Z"/>
          <path class="cls-20" d="M224.47,197.8c0-3.9,3.03-6.46,6.54-6.46s6.56,2.56,6.56,6.46-3.06,6.48-6.56,6.48-6.54-2.58-6.54-6.48ZM234.48,197.8c0-2.11-1.58-3.61-3.48-3.61s-3.45,1.5-3.45,3.61,1.55,3.64,3.45,3.64,3.48-1.48,3.48-3.64Z"/>
          <path class="cls-20" d="M252.24,197.06v6.9h-3.06v-6.69c0-1.98-1.19-3.03-2.56-3.03s-3.14.82-3.14,3.19v6.54h-3.06v-12.31h3.06v1.95c.63-1.55,2.56-2.27,3.82-2.27,3.16,0,4.93,2.13,4.93,5.72Z"/>
          <path class="cls-20" d="M262.33,191.66v2.42h-2.61v9.88h-3.06v-9.88h-2.21v-2.42h2.21v-4.53h3.06v4.53h2.61Z"/>
          <path class="cls-20" d="M278.72,185.81c5.19,0,8.22,3.95,8.22,9.12s-3.03,9.04-8.22,9.04h-7.12v-18.16h7.12ZM278.72,201.09c3.29,0,4.98-2.79,4.98-6.17s-1.69-6.25-4.98-6.25h-3.9v12.41h3.9Z"/>
          <path class="cls-20" d="M301.91,198.88h-9.54c.34,1.71,1.66,2.64,3.5,2.64,1.32,0,2.61-.58,3.32-1.58l2.06,1.55c-1.13,1.79-3.32,2.79-5.56,2.79-3.66,0-6.46-2.64-6.46-6.48s2.92-6.46,6.46-6.46,6.27,2.5,6.27,6.35c0,.34-.03.74-.05,1.19ZM298.93,196.74c-.18-1.69-1.5-2.69-3.21-2.69s-2.98.82-3.35,2.69h6.56Z"/>
          <path class="cls-20" d="M303.94,200.17h2.87c0,.84.74,1.63,2.03,1.63,1.21,0,2-.61,2-1.4,0-.69-.53-1-1.45-1.21l-1.63-.42c-2.77-.74-3.48-2.21-3.48-3.77,0-1.92,1.9-3.66,4.59-3.66,2.19,0,4.66,1.11,4.64,3.85h-2.93c0-.84-.76-1.37-1.63-1.37-.95,0-1.61.55-1.61,1.32,0,.63.61,1,1.32,1.16l1.98.53c2.77.71,3.27,2.45,3.27,3.58,0,2.5-2.5,3.87-5.01,3.87s-4.9-1.48-4.95-4.11Z"/>
          <path class="cls-20" d="M328.47,203.96h-3.87l-4.8-5.59v5.59h-3.06v-19h3.06v10.62l3.53-3.93h3.98l-5.01,5.38,6.17,6.93Z"/>
          <path class="cls-20" d="M335.53,187.31c0-1.08.92-1.87,2-1.87s1.98.79,1.98,1.87-.87,1.87-1.98,1.87-2-.82-2-1.87ZM336.01,203.96v-12.31h3.06v12.31h-3.06Z"/>
          <path class="cls-20" d="M350.55,185.81c4.01,0,5.72,2.92,5.72,5.82s-1.71,5.82-5.72,5.82h-4.14v6.51h-3.21v-18.16h7.35ZM350.39,194.55c1.9,0,2.66-1.45,2.66-2.92s-.74-2.95-2.58-2.95h-4.06v5.88h3.98Z"/>
          <path class="cls-20" d="M367.76,191.66h3.06v12.31h-3.06v-1.92c-.82,1.34-2.45,2.24-4.22,2.24-3.29,0-5.93-2.66-5.93-6.48s2.53-6.46,6.01-6.46c1.69,0,3.32.74,4.14,2.03v-1.71ZM367.71,197.8c0-2.11-1.74-3.61-3.56-3.61-1.98,0-3.48,1.63-3.48,3.61s1.5,3.64,3.5,3.64c1.9,0,3.53-1.58,3.53-3.64Z"/>
          <path class="cls-20" d="M383.86,184.96h3.06v19h-3.06v-1.63c-.84,1.29-2.58,1.95-4.08,1.95-3.24,0-6.06-2.56-6.06-6.48s2.79-6.46,6.03-6.46c1.55,0,3.27.63,4.11,1.92v-8.3ZM383.8,197.77c0-2.16-1.79-3.58-3.56-3.58-1.9,0-3.45,1.53-3.45,3.58s1.55,3.66,3.45,3.66,3.56-1.5,3.56-3.66Z"/>
          <path class="cls-20" d="M212.56,230.55c0,3.16-2.48,5.35-5.98,5.35-2.45,0-4.53-1.34-5.56-3.58l1.87-1.08c.79,1.55,2.13,2.5,3.61,2.5,2.16,0,3.74-1.29,3.74-3.11,0-1.95-1.53-3.24-3.66-3.24h-1.79v-1.98h1.63c1.82,0,3-1.08,3-2.64s-1.11-2.45-2.77-2.45c-1.19,0-2.4.63-3.06,1.63l-1.61-1.32c.9-1.5,2.77-2.5,4.72-2.5,3,0,5.01,1.82,5.01,4.58,0,1.63-.82,2.98-2.16,3.61,1.79.58,3,2.19,3,4.22Z"/>
          <path class="cls-20" d="M215.69,224.59c0-.92.79-1.58,1.71-1.58s1.66.66,1.66,1.58-.76,1.63-1.66,1.63-1.71-.69-1.71-1.63ZM215.69,234.26c0-.95.79-1.63,1.71-1.63s1.66.69,1.66,1.63-.76,1.58-1.66,1.58-1.71-.66-1.71-1.58Z"/>
          <path class="cls-20" d="M222.38,227.02c0-4.9,1.29-8.88,6.25-8.88s6.25,3.98,6.25,8.88-1.29,8.88-6.25,8.88-6.25-4.03-6.25-8.88ZM232.58,227.02c0-3.64-.79-6.69-3.95-6.69s-3.93,3.06-3.93,6.69.76,6.72,3.93,6.72,3.95-3.14,3.95-6.72Z"/>
          <path class="cls-20" d="M241.59,233.37h6.98v2.21h-10.83v-1.03l6.48-7.83c1.08-1.32,1.82-2.71,1.82-3.5,0-1.74-1.24-2.9-3.11-2.9s-3.16,1.05-3.29,2.61l-2.06-.45c.34-2.61,2.4-4.35,5.35-4.35,3.24,0,5.4,2.03,5.4,5.09,0,1.34-.87,3.11-2,4.45l-4.74,5.69Z"/>
          <path class="cls-20" d="M271.5,229.44c0,3.9-2.77,6.46-6.14,6.46-1.84,0-3.58-.79-4.4-2.24v7.91h-2.29v-18.29h2.29v1.92c.82-1.4,2.61-2.24,4.37-2.24,3.37,0,6.17,2.61,6.17,6.48ZM269.18,229.47c0-2.45-1.79-4.35-4.06-4.35s-4.16,1.71-4.16,4.35,2.16,4.27,4.16,4.27c2.27,0,4.06-1.79,4.06-4.27Z"/>
          <path class="cls-20" d="M294.06,228.47v7.12h-2.29v-6.98c0-2.06-1.13-3.43-2.92-3.43-2.19-.03-3.32,1.5-3.32,4.24v6.17h-2.29v-6.98c0-2.08-1.13-3.43-2.77-3.43-1.74,0-3.48,1.13-3.48,3.74v6.67h-2.29v-12.31h2.29v1.9c.61-1.34,2.21-2.21,3.95-2.21s3.35.95,4.06,2.64c1.13-2.21,3.06-2.64,4.3-2.64,3.08,0,4.77,2.06,4.77,5.51Z"/>
        </g>
      </g>
    </g>
  </g>
</svg>