<svg width="46" height="60" viewBox="0 0 46 60" fill="none" xmlns="http://www.w3.org/2000/svg">
<g clip-path="url(#clip0_214_232)">
<path fill-rule="evenodd" clip-rule="evenodd" d="M13.5346 4.30952C4.80313 7.45172 0.723253 17.4513 0.0946331 26.0624C-0.53677 34.7237 2.01403 43.4166 7.06961 50.4393C9.78426 54.2098 13.4306 57.3901 17.5688 59.5014C19.2724 60.3703 21.3597 60.1584 22.4659 58.4305C23.4211 56.9411 23.113 54.4023 21.3972 53.5271C13.4275 49.4592 8.70647 41.6716 7.39683 32.9566C6.19671 24.9743 8.2548 13.6921 16.7523 10.6341C18.5569 9.98473 19.0916 7.41462 18.3009 5.86054C17.34 3.97183 15.3437 3.65788 13.5346 4.30952Z" fill="white"/>
<path fill-rule="evenodd" clip-rule="evenodd" d="M37.8827 0.450511C28.6258 5.42507 22.5408 15.2979 23.0272 25.7707C23.2793 31.1867 24.9787 36.3107 28.1361 40.7616C31.4422 45.4225 36.0007 48.9532 40.5096 52.4233C42.0282 53.592 44.4705 52.856 45.4419 51.3638C46.5618 49.6441 45.8907 47.68 44.366 46.5064C40.6371 43.6361 36.8316 40.6952 34.0306 36.8868C31.7522 33.7883 30.41 29.9905 30.1539 26.1766C29.6187 18.1798 34.0305 10.525 41.1233 6.71389C45.1485 4.55012 41.9242 -1.72145 37.8827 0.450511Z" fill="white"/>
</g>
<defs>
<clipPath id="clip0_214_232">
<rect width="46" height="60" fill="white"/>
</clipPath>
</defs>
</svg>
