<?xml version="1.0" encoding="UTF-8"?>
<svg id="Layer_2" data-name="Layer 2" xmlns="http://www.w3.org/2000/svg" viewBox="0 0 76.99 42.64">
  <defs>
    <style>
      .cls-1 {
        fill: #fff;
        fill-rule: evenodd;
        stroke-width: 0px;
      }
    </style>
  </defs>
  <g id="Layer_2-2" data-name="Layer 2">
    <g id="Layer_1-2" data-name="Layer 1-2">
      <g>
        <path class="cls-1" d="m41.36,12.58c-5.72,0-10.69,3.23-13.21,7.97-2.51-4.74-7.48-7.97-13.21-7.97-3.24,0-6.38,1.05-8.97,3V2.94h0c-.02-.78-.34-1.53-.9-2.08-.54-.55-1.3-.86-2.08-.86S1.45.31.9.86C.34,1.41.02,2.16,0,2.94h0v24.89h0c.13,8.17,6.77,14.76,14.94,14.76,5.72,0,10.69-3.23,13.21-7.97,2.51,4.74,7.48,7.97,13.21,7.97,8.26,0,14.95-6.72,14.95-15s-6.69-15-14.95-15h0Zm-26.41,24c-4.95,0-8.97-4.03-8.97-9s4.01-9,8.97-9,8.97,4.03,8.97,9-4.01,9-8.97,9Zm26.41,0c-4.95,0-8.97-4.03-8.97-9s4.01-9,8.97-9,8.97,4.03,8.97,9-4.01,9-8.97,9Z"/>
        <path class="cls-1" d="m76.42,37.86l-7.66-10.27,7.66-10.27h0c.46-.64.65-1.43.53-2.21s-.53-1.47-1.16-1.95c-.63-.47-1.41-.68-2.19-.57-.78.1-1.48.51-1.96,1.12l-6.61,8.87-6.61-8.87h0c-.48-.62-1.19-1.02-1.96-1.12-.78-.1-1.56.1-2.19.58-.63.47-1.04,1.17-1.16,1.95s.07,1.57.53,2.2h0l7.66,10.27-7.66,10.27h0c-.46.64-.65,1.43-.53,2.21.12.78.53,1.47,1.16,1.95.63.47,1.41.68,2.19.58s1.48-.51,1.96-1.12l6.61-8.86,6.61,8.87c.48.62,1.19,1.02,1.96,1.12.78.1,1.56-.1,2.19-.58.63-.47,1.04-1.17,1.16-1.95.12-.78-.07-1.57-.53-2.2h0v-.02Z"/>
      </g>
    </g>
  </g>
</svg>