<?xml version="1.0" encoding="UTF-8"?>
<svg width="27px" height="32px" viewBox="0 0 27 32" version="1.1" xmlns="http://www.w3.org/2000/svg" xmlns:xlink="http://www.w3.org/1999/xlink">
    <!-- Generator: Sketch 62 (91390) - https://sketch.com -->
    <title>Logo</title>
    <desc>Created with Sketch.</desc>
    <defs>
        <polygon id="path-1" points="0 0.0502779661 26.3095322 0.0502779661 26.3095322 31.2404827 0 31.2404827"></polygon>
    </defs>
    <g id="Home" stroke="none" stroke-width="1" fill="none" fill-rule="evenodd">
        <g id="Homepage" transform="translate(-24.000000, -29.000000)">
            <g id="Nav" transform="translate(24.000000, 24.000000)">
                <g id="Logo" transform="translate(0.000000, 5.000000)">
                    <path d="M9.50302373,9.56345492 L16.5678102,9.56345492 C17.175539,9.56345492 17.6690441,9.07043797 17.6690441,8.46222102 C17.6690441,7.8544922 17.175539,7.36098712 16.5678102,7.36098712 L9.50302373,7.36098712 C8.89529492,7.36098712 8.40227797,7.8544922 8.40227797,8.46222102 C8.40227797,9.07043797 8.89529492,9.56345492 9.50302373,9.56345492" id="Fill-12" fill="#FA4338"></path>
                    <g id="Group-16" transform="translate(0.000000, 0.438004)">
                        <mask id="mask-2" fill="white">
                            <use xlink:href="#path-1"></use>
                        </mask>
                        <g id="Clip-15"></g>
                        <path d="M24.1070644,27.8030319 C24.1070644,28.4849573 23.5540068,29.0385031 22.8715932,29.0385031 L3.43793898,29.0385031 C2.75552542,29.0385031 2.2024678,28.4849573 2.2024678,27.8030319 L2.2024678,3.48753356 C2.2024678,2.80560814 2.75552542,2.25206237 3.43793898,2.25206237 L22.8715932,2.25206237 C23.5540068,2.25206237 24.1070644,2.80560814 24.1070644,3.48753356 L24.1070644,27.8030319 Z M23.5154441,0.0500827119 L2.79408814,0.0500827119 C1.25109153,0.0500827119 0,1.30117424 0,2.84417085 L0,28.4463946 C0,29.9893912 1.25109153,31.2404827 2.79408814,31.2404827 L23.5154441,31.2404827 C25.0584407,31.2404827 26.3095322,29.9893912 26.3095322,28.4463946 L26.3095322,2.84417085 C26.3095322,1.30117424 25.0584407,0.0500827119 23.5154441,0.0500827119 L23.5154441,0.0500827119 Z" id="Fill-14" fill="#FA4338" mask="url(#mask-2)"></path>
                    </g>
                    <path d="M16.7774156,22.6034115 L10.6044529,22.6034115 L10.6044529,19.7697844 L14.107802,19.7697844 C14.7155308,19.7697844 15.2085478,19.2772556 15.2085478,18.6690386 C15.2085478,18.0608217 14.7155308,17.5678047 14.107802,17.5678047 L10.6044529,17.5678047 L10.6044529,14.9289437 L16.5104054,14.9289437 C17.1186224,14.9289437 17.6116393,14.4359268 17.6116393,13.8277098 C17.6116393,13.2194929 17.1186224,12.7269641 16.5104054,12.7269641 L9.50321898,12.7269641 C8.89549017,12.7269641 8.40247322,13.2194929 8.40247322,13.8277098 L8.40247322,23.7046454 C8.40247322,24.3123742 8.89549017,24.8058793 9.50321898,24.8058793 L16.7774156,24.8058793 C17.3856325,24.8058793 17.8786495,24.3123742 17.8786495,23.7046454 C17.8786495,23.0964285 17.3856325,22.6034115 16.7774156,22.6034115" id="Fill-17" fill="#FA4338"></path>
                </g>
            </g>
        </g>
    </g>
</svg>
